<svg xmlns="http://www.w3.org/2000/svg" xmlns:xlink="http://www.w3.org/1999/xlink" width="1400" height="1050" viewBox="0 0 1400 1050">
  <defs>
    <clipPath id="clip-path">
      <rect id="Rectangle_22" data-name="Rectangle 22" width="1017.972" height="1197" fill="none"/>
    </clipPath>
    <clipPath id="clip-Web_1400_1">
      <rect width="1400" height="1050"/>
    </clipPath>
  </defs>
  <g id="Web_1400_1" data-name="Web 1400 – 1" clip-path="url(#clip-Web_1400_1)">
    <rect width="1400" height="1050" fill="#fff"/>
    <g id="Group_14" data-name="Group 14" transform="translate(-345.014 -147)">
      <g id="Group_13" data-name="Group 13" clip-path="url(#clip-path)">
        <rect id="Rectangle_19" data-name="Rectangle 19" width="1534.36" height="1541.091" rx="133.891" transform="translate(957.429 -457.416) rotate(90)" fill="#020433"/>
        <rect id="Rectangle_20" data-name="Rectangle 20" width="1534.36" height="1541.091" rx="133.891" transform="translate(724.039 -536.053) rotate(80)" fill="#0f225f"/>
        <path id="Path_26" data-name="Path 26" d="M-390.212,1379.778l-425.033-1163.6C-843.3,139.387-803.5,54.452-726.352,26.474L442.566-397.461c77.145-27.978,162.423,11.6,190.474,88.388l425.033,1163.6c28.05,76.793-11.748,161.728-88.893,189.707L-199.738,1468.167C-276.883,1496.145-362.161,1456.573-390.212,1379.778Z" transform="translate(-92.406 -46.05)" fill="#224b9d"/>
        <path id="Path_27" data-name="Path 27" d="M-268.132,1610.778-890.152,538.235c-41.051-70.785-16.7-161.289,54.383-202.147L241.347-283c71.086-40.858,161.992-16.6,203.043,54.188L1066.41,843.733c41.052,70.784,16.7,161.288-54.383,202.146L-65.088,1664.965C-136.175,1705.823-227.08,1681.562-268.132,1610.778Z" transform="translate(-101.861 -34.643)" fill="#316bcb"/>
        <path id="Path_28" data-name="Path 28" d="M-111.11,1813.75l-799.849-949a147.528,147.528,0,0,1,18.24-208.486L59.769-139.419c62.861-52.513,156.613-44.311,209.4,18.32l799.848,949a147.527,147.527,0,0,1-18.24,208.486L98.29,1832.07C35.429,1884.584-58.323,1876.381-111.11,1813.75Z" transform="translate(-105.789 -20.457)" fill="#269aff"/>
        <rect id="Rectangle_21" data-name="Rectangle 21" width="1016.862" height="1193.684" transform="translate(-0.41 4.075)" fill="none"/>
      </g>
    </g>
  </g>
</svg>
