<svg id="BACKGROUND_2" data-name="BACKGROUND 2" xmlns="http://www.w3.org/2000/svg" xmlns:xlink="http://www.w3.org/1999/xlink" viewBox="0 0 750 500"><defs><style>.cls-1{fill:none;}.cls-2{fill:url(#Degradado_sin_nombre_4);}.cls-3{clip-path:url(#clip-path);}.cls-4{opacity:0.29;}.cls-5{fill:url(#Degradado_sin_nombre_3);}.cls-6{fill:url(#Degradado_sin_nombre_3-2);}.cls-7{fill:url(#Degradado_sin_nombre_3-3);}.cls-8{fill:url(#Degradado_sin_nombre_3-4);}.cls-9{fill:url(#Degradado_sin_nombre_3-5);}.cls-10{fill:url(#Degradado_sin_nombre_3-6);}.cls-11{fill:url(#Degradado_sin_nombre_3-7);}.cls-12{fill:url(#Degradado_sin_nombre_3-8);}.cls-13{fill:url(#Degradado_sin_nombre_3-10);}.cls-14{fill:url(#Degradado_sin_nombre_3-11);}.cls-15{fill:url(#Degradado_sin_nombre_3-12);}.cls-16{fill:url(#Degradado_sin_nombre_3-13);}.cls-17{fill:url(#Degradado_sin_nombre_3-14);}.cls-18{fill:url(#Degradado_sin_nombre_3-15);}.cls-19{fill:url(#Degradado_sin_nombre_3-16);}.cls-20{fill:url(#Degradado_sin_nombre_3-17);}.cls-21{fill:url(#Degradado_sin_nombre_3-18);}.cls-22{fill:url(#Degradado_sin_nombre_3-19);}.cls-23{fill:url(#Degradado_sin_nombre_3-20);}.cls-24{fill:url(#Degradado_sin_nombre_3-21);}.cls-25{fill:url(#Degradado_sin_nombre_3-22);}.cls-26{fill:url(#Degradado_sin_nombre_3-23);}.cls-27{fill:url(#Degradado_sin_nombre_3-24);}.cls-28{fill:url(#Degradado_sin_nombre_3-25);}.cls-29{fill:url(#Degradado_sin_nombre_3-26);}.cls-30{fill:url(#Degradado_sin_nombre_3-28);}.cls-31{fill:url(#Degradado_sin_nombre_3-29);}.cls-32{fill:url(#Degradado_sin_nombre_3-30);}.cls-33{fill:url(#Degradado_sin_nombre_3-31);}.cls-34{fill:url(#Degradado_sin_nombre_3-32);}.cls-35{fill:url(#Degradado_sin_nombre_3-33);}.cls-36{fill:url(#Degradado_sin_nombre_3-35);}.cls-37{fill:url(#Degradado_sin_nombre_3-36);}.cls-38{fill:url(#Degradado_sin_nombre_3-37);}.cls-39{fill:url(#Degradado_sin_nombre_3-38);}.cls-40{fill:url(#Degradado_sin_nombre_3-39);}.cls-41{fill:url(#Degradado_sin_nombre_3-40);}.cls-42{fill:url(#Degradado_sin_nombre_3-41);}.cls-43{fill:url(#Degradado_sin_nombre_3-42);}.cls-44{fill:url(#Degradado_sin_nombre_3-43);}.cls-45{fill:url(#Degradado_sin_nombre_3-44);}.cls-46{fill:url(#Degradado_sin_nombre_3-45);}.cls-47{fill:url(#Degradado_sin_nombre_3-46);}.cls-48{fill:url(#Degradado_sin_nombre_3-47);}.cls-49{fill:url(#Degradado_sin_nombre_3-48);}.cls-50{fill:url(#Degradado_sin_nombre_3-49);}.cls-51{fill:url(#Degradado_sin_nombre_3-50);}.cls-52{fill:url(#Degradado_sin_nombre_3-51);}.cls-53{fill:url(#Degradado_sin_nombre_3-52);}.cls-54{fill:url(#Degradado_sin_nombre_3-53);}.cls-55{fill:url(#Degradado_sin_nombre_3-54);}.cls-56{fill:url(#Degradado_sin_nombre_3-55);}.cls-57{fill:url(#Degradado_sin_nombre_3-56);}.cls-58{fill:url(#Degradado_sin_nombre_3-57);}.cls-59{fill:url(#Degradado_sin_nombre_3-58);}.cls-60{fill:url(#Degradado_sin_nombre_3-59);}.cls-61{fill:url(#Degradado_sin_nombre_3-60);}.cls-62{fill:url(#Degradado_sin_nombre_3-62);}.cls-63{fill:url(#Degradado_sin_nombre_3-63);}.cls-64{fill:url(#Degradado_sin_nombre_3-64);}.cls-65{fill:url(#Degradado_sin_nombre_3-65);}.cls-66{fill:url(#Degradado_sin_nombre_3-66);}.cls-67{fill:url(#Degradado_sin_nombre_3-67);}.cls-68{fill:url(#Degradado_sin_nombre_3-68);}.cls-69{fill:url(#Degradado_sin_nombre_3-69);}.cls-70{fill:url(#Degradado_sin_nombre_3-70);}.cls-71{fill:url(#Degradado_sin_nombre_3-71);}.cls-72{fill:url(#Degradado_sin_nombre_3-72);}.cls-73{fill:url(#Degradado_sin_nombre_3-73);}.cls-74{fill:url(#Degradado_sin_nombre_3-74);}.cls-75{fill:url(#Degradado_sin_nombre_3-75);}.cls-76{fill:url(#Degradado_sin_nombre_3-76);}.cls-77{fill:url(#Degradado_sin_nombre_3-77);}.cls-78{fill:url(#Degradado_sin_nombre_3-78);}.cls-79{fill:url(#Degradado_sin_nombre_3-79);}.cls-80{fill:url(#Degradado_sin_nombre_3-80);}.cls-81{fill:url(#Degradado_sin_nombre_3-81);}.cls-82{fill:url(#Degradado_sin_nombre_3-82);}.cls-83{fill:url(#Degradado_sin_nombre_3-83);}.cls-84{fill:url(#Degradado_sin_nombre_3-84);}.cls-85{fill:url(#Degradado_sin_nombre_3-85);}.cls-86{fill:url(#Degradado_sin_nombre_3-86);}.cls-87{fill:url(#Degradado_sin_nombre_3-87);}.cls-88{fill:url(#Degradado_sin_nombre_3-88);}.cls-89{fill:url(#Degradado_sin_nombre_3-89);}.cls-90{fill:url(#Degradado_sin_nombre_3-90);}.cls-91{fill:url(#Degradado_sin_nombre_3-91);}.cls-92{fill:url(#Degradado_sin_nombre_3-92);}.cls-93{fill:url(#Degradado_sin_nombre_3-93);}.cls-94{fill:url(#Degradado_sin_nombre_3-94);}.cls-95{fill:url(#Degradado_sin_nombre_3-95);}.cls-96{fill:url(#Degradado_sin_nombre_3-96);}.cls-97{fill:url(#Degradado_sin_nombre_3-97);}.cls-98{fill:url(#Degradado_sin_nombre_3-98);}.cls-99{fill:url(#Degradado_sin_nombre_3-99);}.cls-100{fill:url(#Degradado_sin_nombre_3-100);}.cls-101{fill:url(#Degradado_sin_nombre_3-101);}.cls-102{fill:url(#Degradado_sin_nombre_3-102);}.cls-103{fill:url(#Degradado_sin_nombre_3-103);}.cls-104{fill:url(#Degradado_sin_nombre_3-104);}.cls-105{fill:url(#Degradado_sin_nombre_3-105);}.cls-106{fill:url(#Degradado_sin_nombre_3-106);}.cls-107{fill:url(#Degradado_sin_nombre_3-107);}.cls-108{fill:url(#Degradado_sin_nombre_3-108);}.cls-109{fill:url(#Degradado_sin_nombre_3-109);}.cls-110{fill:url(#Degradado_sin_nombre_3-110);}.cls-111{fill:url(#Degradado_sin_nombre_3-112);}.cls-112{fill:url(#Degradado_sin_nombre_3-113);}.cls-113{fill:url(#Degradado_sin_nombre_3-114);}.cls-114{fill:url(#Degradado_sin_nombre_3-115);}.cls-115{fill:url(#Degradado_sin_nombre_3-116);}.cls-116{fill:url(#Degradado_sin_nombre_3-118);}.cls-117{fill:url(#Degradado_sin_nombre_3-119);}.cls-118{fill:url(#Degradado_sin_nombre_3-120);}.cls-119{fill:url(#Degradado_sin_nombre_3-121);}.cls-120{fill:url(#Degradado_sin_nombre_3-122);}.cls-121{fill:url(#Degradado_sin_nombre_3-123);}.cls-122{fill:url(#Degradado_sin_nombre_3-124);}.cls-123{fill:url(#Degradado_sin_nombre_3-125);}.cls-124{fill:url(#Degradado_sin_nombre_3-126);}.cls-125{fill:url(#Degradado_sin_nombre_3-127);}.cls-126{fill:url(#Degradado_sin_nombre_3-128);}.cls-127{fill:url(#Degradado_sin_nombre_3-129);}.cls-128{fill:url(#Degradado_sin_nombre_3-130);}.cls-129{fill:url(#Degradado_sin_nombre_3-131);}.cls-130{fill:url(#Degradado_sin_nombre_3-132);}.cls-131{fill:url(#Degradado_sin_nombre_3-133);}.cls-132{fill:url(#Degradado_sin_nombre_3-134);}.cls-133{fill:url(#Degradado_sin_nombre_3-135);}.cls-134{fill:url(#Degradado_sin_nombre_3-136);}.cls-135{fill:url(#Degradado_sin_nombre_3-137);}.cls-136{fill:url(#Degradado_sin_nombre_3-138);}.cls-137{fill:url(#Degradado_sin_nombre_3-139);}.cls-138{fill:url(#Degradado_sin_nombre_3-140);}.cls-139{fill:url(#Degradado_sin_nombre_3-141);}.cls-140{fill:url(#Degradado_sin_nombre_3-142);}.cls-141{fill:url(#Degradado_sin_nombre_3-143);}.cls-142{fill:url(#Degradado_sin_nombre_3-144);}.cls-143{fill:url(#Degradado_sin_nombre_3-145);}.cls-144{fill:url(#Degradado_sin_nombre_3-146);}.cls-145{fill:url(#Degradado_sin_nombre_3-148);}.cls-146{fill:url(#Degradado_sin_nombre_3-149);}.cls-147{fill:url(#Degradado_sin_nombre_3-150);}.cls-148{fill:url(#Degradado_sin_nombre_3-151);}.cls-149{fill:url(#Degradado_sin_nombre_3-153);}.cls-150{fill:url(#Degradado_sin_nombre_3-155);}.cls-151{fill:url(#Degradado_sin_nombre_3-156);}.cls-152{fill:url(#Degradado_sin_nombre_3-157);}.cls-153{fill:url(#Degradado_sin_nombre_3-158);}.cls-154{fill:url(#Degradado_sin_nombre_3-159);}.cls-155{fill:url(#Degradado_sin_nombre_3-160);}.cls-156{fill:url(#Degradado_sin_nombre_3-161);}.cls-157{fill:url(#Degradado_sin_nombre_3-162);}.cls-158{fill:url(#Degradado_sin_nombre_3-163);}.cls-159{fill:url(#Degradado_sin_nombre_3-164);}.cls-160{fill:url(#Degradado_sin_nombre_3-165);}.cls-161{fill:url(#Degradado_sin_nombre_3-166);}.cls-162{fill:url(#Degradado_sin_nombre_3-167);}.cls-163{fill:url(#Degradado_sin_nombre_3-168);}.cls-164{fill:url(#Degradado_sin_nombre_3-169);}.cls-165{fill:url(#Degradado_sin_nombre_3-170);}.cls-166{fill:url(#Degradado_sin_nombre_3-171);}.cls-167{fill:url(#Degradado_sin_nombre_3-172);}.cls-168,.cls-169,.cls-170,.cls-171,.cls-172,.cls-173,.cls-174,.cls-242,.cls-243,.cls-244,.cls-245,.cls-246,.cls-247,.cls-248{opacity:0.53;}.cls-168{fill:url(#Degradado_sin_nombre_2);}.cls-169{fill:url(#Degradado_sin_nombre_2-2);}.cls-170{fill:url(#Degradado_sin_nombre_2-3);}.cls-171{fill:url(#Degradado_sin_nombre_2-4);}.cls-172{fill:url(#Degradado_sin_nombre_2-5);}.cls-173{fill:url(#Degradado_sin_nombre_2-6);}.cls-174{fill:url(#Degradado_sin_nombre_2-7);}.cls-175{fill:url(#Degradado_sin_nombre_3-173);}.cls-176{fill:url(#Degradado_sin_nombre_3-174);}.cls-177{fill:url(#Degradado_sin_nombre_3-175);}.cls-178{fill:url(#Degradado_sin_nombre_3-176);}.cls-179{fill:url(#Degradado_sin_nombre_3-177);}.cls-180{fill:url(#Degradado_sin_nombre_3-178);}.cls-181{fill:url(#Degradado_sin_nombre_3-179);}.cls-182{fill:url(#Degradado_sin_nombre_3-180);}.cls-183{fill:url(#Degradado_sin_nombre_3-181);}.cls-184{fill:url(#Degradado_sin_nombre_3-182);}.cls-185{fill:url(#Degradado_sin_nombre_3-183);}.cls-186{fill:url(#Degradado_sin_nombre_3-184);}.cls-187{fill:url(#Degradado_sin_nombre_3-185);}.cls-188{fill:url(#Degradado_sin_nombre_3-186);}.cls-189{fill:url(#Degradado_sin_nombre_3-187);}.cls-190{fill:url(#Degradado_sin_nombre_3-188);}.cls-191{fill:url(#Degradado_sin_nombre_3-190);}.cls-192{fill:url(#Degradado_sin_nombre_3-191);}.cls-193{fill:url(#Degradado_sin_nombre_3-192);}.cls-194{fill:url(#Degradado_sin_nombre_3-193);}.cls-195{fill:url(#Degradado_sin_nombre_3-194);}.cls-196{fill:url(#Degradado_sin_nombre_3-195);}.cls-197{fill:url(#Degradado_sin_nombre_3-196);}.cls-198{fill:url(#Degradado_sin_nombre_3-197);}.cls-199{fill:url(#Degradado_sin_nombre_3-198);}.cls-200{fill:url(#Degradado_sin_nombre_3-199);}.cls-201{fill:url(#Degradado_sin_nombre_3-200);}.cls-202{fill:url(#Degradado_sin_nombre_3-201);}.cls-203{fill:url(#Degradado_sin_nombre_3-202);}.cls-204{fill:url(#Degradado_sin_nombre_3-203);}.cls-205{fill:url(#Degradado_sin_nombre_3-204);}.cls-206{fill:url(#Degradado_sin_nombre_3-205);}.cls-207{fill:url(#Degradado_sin_nombre_3-206);}.cls-208{fill:url(#Degradado_sin_nombre_3-207);}.cls-209{fill:url(#Degradado_sin_nombre_3-208);}.cls-210{fill:url(#Degradado_sin_nombre_3-209);}.cls-211{fill:url(#Degradado_sin_nombre_3-210);}.cls-212{fill:url(#Degradado_sin_nombre_3-211);}.cls-213{fill:url(#Degradado_sin_nombre_3-212);}.cls-214{fill:url(#Degradado_sin_nombre_3-213);}.cls-215{fill:url(#Degradado_sin_nombre_3-214);}.cls-216{fill:url(#Degradado_sin_nombre_3-215);}.cls-217{fill:url(#Degradado_sin_nombre_3-216);}.cls-218{fill:url(#Degradado_sin_nombre_3-217);}.cls-219{fill:url(#Degradado_sin_nombre_3-218);}.cls-220{fill:url(#Degradado_sin_nombre_3-221);}.cls-221{fill:url(#Degradado_sin_nombre_3-222);}.cls-222{fill:url(#Degradado_sin_nombre_3-223);}.cls-223{fill:url(#Degradado_sin_nombre_3-225);}.cls-224{fill:url(#Degradado_sin_nombre_3-227);}.cls-225{fill:url(#Degradado_sin_nombre_3-228);}.cls-226{fill:url(#Degradado_sin_nombre_3-229);}.cls-227{fill:url(#Degradado_sin_nombre_3-230);}.cls-228{fill:url(#Degradado_sin_nombre_3-231);}.cls-229{fill:url(#Degradado_sin_nombre_3-232);}.cls-230{fill:url(#Degradado_sin_nombre_3-233);}.cls-231{fill:url(#Degradado_sin_nombre_3-234);}.cls-232{fill:url(#Degradado_sin_nombre_3-235);}.cls-233{fill:url(#Degradado_sin_nombre_3-236);}.cls-234{fill:url(#Degradado_sin_nombre_3-237);}.cls-235{fill:url(#Degradado_sin_nombre_3-238);}.cls-236{fill:url(#Degradado_sin_nombre_3-239);}.cls-237{fill:url(#Degradado_sin_nombre_3-240);}.cls-238{fill:url(#Degradado_sin_nombre_3-241);}.cls-239{fill:url(#Degradado_sin_nombre_3-242);}.cls-240{fill:url(#Degradado_sin_nombre_3-243);}.cls-241{fill:url(#Degradado_sin_nombre_3-244);}.cls-242{fill:url(#Degradado_sin_nombre_2-8);}.cls-243{fill:url(#Degradado_sin_nombre_2-9);}.cls-244{fill:url(#Degradado_sin_nombre_2-10);}.cls-245{fill:url(#Degradado_sin_nombre_2-11);}.cls-246{fill:url(#Degradado_sin_nombre_2-12);}.cls-247{fill:url(#Degradado_sin_nombre_2-13);}.cls-248{fill:url(#Degradado_sin_nombre_2-14);}</style><radialGradient id="Degradado_sin_nombre_4" cx="375" cy="250" r="318.69" gradientUnits="userSpaceOnUse"><stop offset="0" stop-color="#14244c"/><stop offset="1" stop-color="#000026"/></radialGradient><clipPath id="clip-path"><rect class="cls-1" width="750" height="500"/></clipPath><radialGradient id="Degradado_sin_nombre_3" cx="2079.62" cy="919.13" r="172.67" gradientTransform="translate(-530.53 1954.16) rotate(-90)" gradientUnits="userSpaceOnUse"><stop offset="0" stop-color="#00b7c3"/><stop offset="0.38" stop-color="#0090a8"/><stop offset="1" stop-color="#004976"/></radialGradient><radialGradient id="Degradado_sin_nombre_3-2" cx="2079.62" cy="919.13" r="172.67" xlink:href="#Degradado_sin_nombre_3"/><radialGradient id="Degradado_sin_nombre_3-3" cx="2069.22" cy="919.13" r="186.77" xlink:href="#Degradado_sin_nombre_3"/><radialGradient id="Degradado_sin_nombre_3-4" cx="2065.71" cy="919.13" r="200.16" xlink:href="#Degradado_sin_nombre_3"/><radialGradient id="Degradado_sin_nombre_3-5" cx="2079.62" cy="919.13" r="172.67" xlink:href="#Degradado_sin_nombre_3"/><radialGradient id="Degradado_sin_nombre_3-6" cx="2079.62" cy="919.13" r="172.67" xlink:href="#Degradado_sin_nombre_3"/><radialGradient id="Degradado_sin_nombre_3-7" cx="2079.62" cy="919.13" r="172.67" xlink:href="#Degradado_sin_nombre_3"/><radialGradient id="Degradado_sin_nombre_3-8" cx="2079.62" cy="919.13" r="172.67" xlink:href="#Degradado_sin_nombre_3"/><radialGradient id="Degradado_sin_nombre_3-10" cx="2079.62" cy="919.13" r="172.67" xlink:href="#Degradado_sin_nombre_3"/><radialGradient id="Degradado_sin_nombre_3-11" cx="2079.62" cy="919.13" r="172.67" xlink:href="#Degradado_sin_nombre_3"/><radialGradient id="Degradado_sin_nombre_3-12" cx="2079.62" cy="919.13" r="172.67" xlink:href="#Degradado_sin_nombre_3"/><radialGradient id="Degradado_sin_nombre_3-13" cx="2079.62" cy="919.13" r="172.67" xlink:href="#Degradado_sin_nombre_3"/><radialGradient id="Degradado_sin_nombre_3-14" cx="2079.62" cy="919.12" r="172.67" xlink:href="#Degradado_sin_nombre_3"/><radialGradient id="Degradado_sin_nombre_3-15" cx="2079.62" cy="919.13" r="172.67" xlink:href="#Degradado_sin_nombre_3"/><radialGradient id="Degradado_sin_nombre_3-16" cx="2079.62" cy="919.13" r="172.68" xlink:href="#Degradado_sin_nombre_3"/><radialGradient id="Degradado_sin_nombre_3-17" cx="2079.62" cy="919.13" r="172.67" xlink:href="#Degradado_sin_nombre_3"/><radialGradient id="Degradado_sin_nombre_3-18" cx="2079.62" cy="919.13" r="172.67" xlink:href="#Degradado_sin_nombre_3"/><radialGradient id="Degradado_sin_nombre_3-19" cx="2032.25" cy="919.13" r="172.67" xlink:href="#Degradado_sin_nombre_3"/><radialGradient id="Degradado_sin_nombre_3-20" cx="2079.62" cy="919.13" r="172.67" xlink:href="#Degradado_sin_nombre_3"/><radialGradient id="Degradado_sin_nombre_3-21" cx="2079.62" cy="919.13" r="172.67" xlink:href="#Degradado_sin_nombre_3"/><radialGradient id="Degradado_sin_nombre_3-22" cx="2079.62" cy="919.13" r="172.67" xlink:href="#Degradado_sin_nombre_3"/><radialGradient id="Degradado_sin_nombre_3-23" cx="2013.8" cy="919.13" r="172.67" xlink:href="#Degradado_sin_nombre_3"/><radialGradient id="Degradado_sin_nombre_3-24" cx="2079.62" cy="919.13" r="172.67" xlink:href="#Degradado_sin_nombre_3"/><radialGradient id="Degradado_sin_nombre_3-25" cx="2079.62" cy="919.13" r="172.67" xlink:href="#Degradado_sin_nombre_3"/><radialGradient id="Degradado_sin_nombre_3-26" cx="2079.62" cy="919.13" r="172.67" xlink:href="#Degradado_sin_nombre_3"/><radialGradient id="Degradado_sin_nombre_3-28" cx="2079.62" cy="919.13" r="172.67" xlink:href="#Degradado_sin_nombre_3"/><radialGradient id="Degradado_sin_nombre_3-29" cx="2079.62" cy="919.13" r="172.67" xlink:href="#Degradado_sin_nombre_3"/><radialGradient id="Degradado_sin_nombre_3-30" cx="2079.62" cy="919.13" r="172.67" xlink:href="#Degradado_sin_nombre_3"/><radialGradient id="Degradado_sin_nombre_3-31" cx="2079.62" cy="919.13" r="172.67" xlink:href="#Degradado_sin_nombre_3"/><radialGradient id="Degradado_sin_nombre_3-32" cx="2079.62" cy="919.13" r="172.67" xlink:href="#Degradado_sin_nombre_3"/><radialGradient id="Degradado_sin_nombre_3-33" cx="2079.62" cy="919.13" r="172.67" xlink:href="#Degradado_sin_nombre_3"/><radialGradient id="Degradado_sin_nombre_3-35" cx="2069.58" cy="919.13" r="190.51" xlink:href="#Degradado_sin_nombre_3"/><radialGradient id="Degradado_sin_nombre_3-36" cx="2079.62" cy="919.13" r="172.67" xlink:href="#Degradado_sin_nombre_3"/><radialGradient id="Degradado_sin_nombre_3-37" cx="2079.62" cy="919.13" r="172.67" xlink:href="#Degradado_sin_nombre_3"/><radialGradient id="Degradado_sin_nombre_3-38" cx="2079.62" cy="919.13" r="172.67" xlink:href="#Degradado_sin_nombre_3"/><radialGradient id="Degradado_sin_nombre_3-39" cx="2079.62" cy="919.13" r="172.67" xlink:href="#Degradado_sin_nombre_3"/><radialGradient id="Degradado_sin_nombre_3-40" cx="2079.62" cy="919.13" r="172.67" xlink:href="#Degradado_sin_nombre_3"/><radialGradient id="Degradado_sin_nombre_3-41" cx="2079.62" cy="919.13" r="172.67" xlink:href="#Degradado_sin_nombre_3"/><radialGradient id="Degradado_sin_nombre_3-42" cx="2079.62" cy="919.13" r="172.67" xlink:href="#Degradado_sin_nombre_3"/><radialGradient id="Degradado_sin_nombre_3-43" cx="2079.62" cy="919.13" r="172.67" xlink:href="#Degradado_sin_nombre_3"/><radialGradient id="Degradado_sin_nombre_3-44" cx="2079.62" cy="919.13" r="172.67" xlink:href="#Degradado_sin_nombre_3"/><radialGradient id="Degradado_sin_nombre_3-45" cx="2079.62" cy="919.13" r="172.67" xlink:href="#Degradado_sin_nombre_3"/><radialGradient id="Degradado_sin_nombre_3-46" cx="2079.62" cy="919.13" r="172.67" xlink:href="#Degradado_sin_nombre_3"/><radialGradient id="Degradado_sin_nombre_3-47" cx="2079.62" cy="919.13" r="172.67" xlink:href="#Degradado_sin_nombre_3"/><radialGradient id="Degradado_sin_nombre_3-48" cx="2037.04" cy="919.13" r="172.67" xlink:href="#Degradado_sin_nombre_3"/><radialGradient id="Degradado_sin_nombre_3-49" cx="2079.62" cy="919.13" r="172.67" xlink:href="#Degradado_sin_nombre_3"/><radialGradient id="Degradado_sin_nombre_3-50" cx="2079.62" cy="919.13" r="172.67" xlink:href="#Degradado_sin_nombre_3"/><radialGradient id="Degradado_sin_nombre_3-51" cx="2079.62" cy="919.13" r="172.67" xlink:href="#Degradado_sin_nombre_3"/><radialGradient id="Degradado_sin_nombre_3-52" cx="2079.62" cy="919.13" r="172.67" xlink:href="#Degradado_sin_nombre_3"/><radialGradient id="Degradado_sin_nombre_3-53" cx="-484.09" cy="1538.45" r="172.67" gradientTransform="translate(1878.59 1149.72) rotate(90)" xlink:href="#Degradado_sin_nombre_3"/><radialGradient id="Degradado_sin_nombre_3-54" cx="-484.09" cy="1538.45" r="172.67" gradientTransform="translate(1878.59 1149.72) rotate(90)" xlink:href="#Degradado_sin_nombre_3"/><radialGradient id="Degradado_sin_nombre_3-55" cx="-494.5" cy="1538.45" r="186.77" gradientTransform="translate(1878.59 1149.72) rotate(90)" xlink:href="#Degradado_sin_nombre_3"/><radialGradient id="Degradado_sin_nombre_3-56" cx="-498.01" cy="1538.45" r="200.16" gradientTransform="translate(1878.59 1149.72) rotate(90)" xlink:href="#Degradado_sin_nombre_3"/><radialGradient id="Degradado_sin_nombre_3-57" cx="-484.09" cy="1538.45" r="172.67" gradientTransform="translate(1878.59 1149.72) rotate(90)" xlink:href="#Degradado_sin_nombre_3"/><radialGradient id="Degradado_sin_nombre_3-58" cx="-484.09" cy="1538.45" r="172.67" gradientTransform="translate(1878.59 1149.72) rotate(90)" xlink:href="#Degradado_sin_nombre_3"/><radialGradient id="Degradado_sin_nombre_3-59" cx="-484.09" cy="1538.45" r="172.67" gradientTransform="translate(1878.59 1149.72) rotate(90)" xlink:href="#Degradado_sin_nombre_3"/><radialGradient id="Degradado_sin_nombre_3-60" cx="-484.09" cy="1538.45" r="172.67" gradientTransform="translate(1878.59 1149.72) rotate(90)" xlink:href="#Degradado_sin_nombre_3"/><radialGradient id="Degradado_sin_nombre_3-62" cx="-484.09" cy="1538.45" r="172.67" gradientTransform="translate(1878.59 1149.72) rotate(90)" xlink:href="#Degradado_sin_nombre_3"/><radialGradient id="Degradado_sin_nombre_3-63" cx="-484.09" cy="1538.45" r="172.67" gradientTransform="translate(1878.59 1149.72) rotate(90)" xlink:href="#Degradado_sin_nombre_3"/><radialGradient id="Degradado_sin_nombre_3-64" cx="-484.09" cy="1538.45" r="172.67" gradientTransform="translate(1878.59 1149.72) rotate(90)" xlink:href="#Degradado_sin_nombre_3"/><radialGradient id="Degradado_sin_nombre_3-65" cx="-484.09" cy="1538.45" r="172.67" gradientTransform="translate(1878.59 1149.72) rotate(90)" xlink:href="#Degradado_sin_nombre_3"/><radialGradient id="Degradado_sin_nombre_3-66" cx="-484.09" cy="1538.45" r="172.67" gradientTransform="translate(1878.59 1149.72) rotate(90)" xlink:href="#Degradado_sin_nombre_3"/><radialGradient id="Degradado_sin_nombre_3-67" cx="-484.09" cy="1538.46" r="172.68" gradientTransform="translate(1878.59 1149.72) rotate(90)" xlink:href="#Degradado_sin_nombre_3"/><radialGradient id="Degradado_sin_nombre_3-68" cx="-484.09" cy="1538.45" r="172.67" gradientTransform="translate(1878.59 1149.72) rotate(90)" xlink:href="#Degradado_sin_nombre_3"/><radialGradient id="Degradado_sin_nombre_3-69" cx="-484.09" cy="1538.45" r="172.67" gradientTransform="translate(1878.59 1149.72) rotate(90)" xlink:href="#Degradado_sin_nombre_3"/><radialGradient id="Degradado_sin_nombre_3-70" cx="-531.46" cy="1538.45" r="172.67" gradientTransform="translate(1878.59 1149.72) rotate(90)" xlink:href="#Degradado_sin_nombre_3"/><radialGradient id="Degradado_sin_nombre_3-71" cx="-484.1" cy="1538.45" r="172.67" gradientTransform="translate(1878.59 1149.72) rotate(90)" xlink:href="#Degradado_sin_nombre_3"/><radialGradient id="Degradado_sin_nombre_3-72" cx="-484.09" cy="1538.45" r="172.68" gradientTransform="translate(1878.59 1149.72) rotate(90)" xlink:href="#Degradado_sin_nombre_3"/><radialGradient id="Degradado_sin_nombre_3-73" cx="-549.91" cy="1538.45" r="172.67" gradientTransform="translate(1878.59 1149.72) rotate(90)" xlink:href="#Degradado_sin_nombre_3"/><radialGradient id="Degradado_sin_nombre_3-74" cx="-484.08" cy="1538.45" r="172.68" gradientTransform="translate(1878.59 1149.72) rotate(90)" xlink:href="#Degradado_sin_nombre_3"/><radialGradient id="Degradado_sin_nombre_3-75" cx="-484.09" cy="1538.45" r="172.67" gradientTransform="translate(1878.59 1149.72) rotate(90)" xlink:href="#Degradado_sin_nombre_3"/><radialGradient id="Degradado_sin_nombre_3-76" cx="-484.09" cy="1538.45" r="172.68" gradientTransform="translate(1878.59 1149.72) rotate(90)" xlink:href="#Degradado_sin_nombre_3"/><radialGradient id="Degradado_sin_nombre_3-77" cx="-484.09" cy="1538.45" r="172.67" gradientTransform="translate(1878.59 1149.72) rotate(90)" xlink:href="#Degradado_sin_nombre_3"/><radialGradient id="Degradado_sin_nombre_3-78" cx="-484.09" cy="1538.45" r="172.67" gradientTransform="translate(1878.59 1149.72) rotate(90)" xlink:href="#Degradado_sin_nombre_3"/><radialGradient id="Degradado_sin_nombre_3-79" cx="-484.09" cy="1538.45" r="172.67" gradientTransform="translate(1878.59 1149.72) rotate(90)" xlink:href="#Degradado_sin_nombre_3"/><radialGradient id="Degradado_sin_nombre_3-80" cx="-484.09" cy="1538.45" r="172.67" gradientTransform="translate(1878.59 1149.72) rotate(90)" xlink:href="#Degradado_sin_nombre_3"/><radialGradient id="Degradado_sin_nombre_3-81" cx="-484.09" cy="1538.45" r="172.67" gradientTransform="translate(1878.59 1149.72) rotate(90)" xlink:href="#Degradado_sin_nombre_3"/><radialGradient id="Degradado_sin_nombre_3-82" cx="-484.09" cy="1538.45" r="172.67" gradientTransform="translate(1878.59 1149.72) rotate(90)" xlink:href="#Degradado_sin_nombre_3"/><radialGradient id="Degradado_sin_nombre_3-83" cx="-484.09" cy="1538.45" r="172.67" gradientTransform="translate(1878.59 1149.72) rotate(90)" xlink:href="#Degradado_sin_nombre_3"/><radialGradient id="Degradado_sin_nombre_3-84" cx="-484.09" cy="1538.45" r="172.67" gradientTransform="translate(1878.59 1149.72) rotate(90)" xlink:href="#Degradado_sin_nombre_3"/><radialGradient id="Degradado_sin_nombre_3-85" cx="-494.13" cy="1538.45" r="190.51" gradientTransform="translate(1878.59 1149.72) rotate(90)" xlink:href="#Degradado_sin_nombre_3"/><radialGradient id="Degradado_sin_nombre_3-86" cx="-484.09" cy="1538.45" r="172.67" gradientTransform="translate(1878.59 1149.72) rotate(90)" xlink:href="#Degradado_sin_nombre_3"/><radialGradient id="Degradado_sin_nombre_3-87" cx="-484.09" cy="1538.45" r="172.67" gradientTransform="translate(1878.59 1149.72) rotate(90)" xlink:href="#Degradado_sin_nombre_3"/><radialGradient id="Degradado_sin_nombre_3-88" cx="-484.09" cy="1538.45" r="172.67" gradientTransform="translate(1878.59 1149.72) rotate(90)" xlink:href="#Degradado_sin_nombre_3"/><radialGradient id="Degradado_sin_nombre_3-89" cx="-484.09" cy="1538.45" r="172.67" gradientTransform="translate(1878.59 1149.72) rotate(90)" xlink:href="#Degradado_sin_nombre_3"/><radialGradient id="Degradado_sin_nombre_3-90" cx="-484.09" cy="1538.45" r="172.67" gradientTransform="translate(1878.59 1149.72) rotate(90)" xlink:href="#Degradado_sin_nombre_3"/><radialGradient id="Degradado_sin_nombre_3-91" cx="-484.09" cy="1538.45" r="172.67" gradientTransform="translate(1878.59 1149.72) rotate(90)" xlink:href="#Degradado_sin_nombre_3"/><radialGradient id="Degradado_sin_nombre_3-92" cx="-484.09" cy="1538.45" r="172.67" gradientTransform="translate(1878.59 1149.72) rotate(90)" xlink:href="#Degradado_sin_nombre_3"/><radialGradient id="Degradado_sin_nombre_3-93" cx="-484.09" cy="1538.45" r="172.67" gradientTransform="translate(1878.59 1149.72) rotate(90)" xlink:href="#Degradado_sin_nombre_3"/><radialGradient id="Degradado_sin_nombre_3-94" cx="-484.09" cy="1538.45" r="172.67" gradientTransform="translate(1878.59 1149.72) rotate(90)" xlink:href="#Degradado_sin_nombre_3"/><radialGradient id="Degradado_sin_nombre_3-95" cx="-484.1" cy="1538.45" r="172.67" gradientTransform="translate(1878.59 1149.72) rotate(90)" xlink:href="#Degradado_sin_nombre_3"/><radialGradient id="Degradado_sin_nombre_3-96" cx="-526.66" cy="1538.45" r="172.68" gradientTransform="translate(1878.59 1149.72) rotate(90)" xlink:href="#Degradado_sin_nombre_3"/><radialGradient id="Degradado_sin_nombre_3-97" cx="-484.09" cy="1538.45" r="172.67" gradientTransform="translate(1878.59 1149.72) rotate(90)" xlink:href="#Degradado_sin_nombre_3"/><radialGradient id="Degradado_sin_nombre_3-98" cx="-484.08" cy="1538.45" r="172.68" gradientTransform="translate(1878.59 1149.72) rotate(90)" xlink:href="#Degradado_sin_nombre_3"/><radialGradient id="Degradado_sin_nombre_3-99" cx="-484.09" cy="1538.45" r="172.67" gradientTransform="translate(1878.59 1149.72) rotate(90)" xlink:href="#Degradado_sin_nombre_3"/><radialGradient id="Degradado_sin_nombre_3-100" cx="-484.09" cy="1538.45" r="172.68" gradientTransform="translate(1878.59 1149.72) rotate(90)" xlink:href="#Degradado_sin_nombre_3"/><radialGradient id="Degradado_sin_nombre_3-101" cx="786.83" cy="267.22" r="172.67" gradientTransform="matrix(1, 0, 0, 1, 0, 0)" xlink:href="#Degradado_sin_nombre_3"/><radialGradient id="Degradado_sin_nombre_3-102" cx="786.83" cy="267.22" r="172.67" gradientTransform="matrix(1, 0, 0, 1, 0, 0)" xlink:href="#Degradado_sin_nombre_3"/><radialGradient id="Degradado_sin_nombre_3-103" cx="786.83" cy="267.22" r="172.67" gradientTransform="matrix(1, 0, 0, 1, 0, 0)" xlink:href="#Degradado_sin_nombre_3"/><radialGradient id="Degradado_sin_nombre_3-104" cx="786.83" cy="267.22" r="172.67" gradientTransform="matrix(1, 0, 0, 1, 0, 0)" xlink:href="#Degradado_sin_nombre_3"/><radialGradient id="Degradado_sin_nombre_3-105" cx="786.83" cy="267.22" r="172.67" gradientTransform="matrix(1, 0, 0, 1, 0, 0)" xlink:href="#Degradado_sin_nombre_3"/><radialGradient id="Degradado_sin_nombre_3-106" cx="776.43" cy="267.22" r="186.77" gradientTransform="matrix(1, 0, 0, 1, 0, 0)" xlink:href="#Degradado_sin_nombre_3"/><radialGradient id="Degradado_sin_nombre_3-107" cx="772.92" cy="267.22" r="200.16" gradientTransform="matrix(1, 0, 0, 1, 0, 0)" xlink:href="#Degradado_sin_nombre_3"/><radialGradient id="Degradado_sin_nombre_3-108" cx="786.83" cy="267.22" r="172.67" gradientTransform="matrix(1, 0, 0, 1, 0, 0)" xlink:href="#Degradado_sin_nombre_3"/><radialGradient id="Degradado_sin_nombre_3-109" cx="786.83" cy="267.22" r="172.67" gradientTransform="matrix(1, 0, 0, 1, 0, 0)" xlink:href="#Degradado_sin_nombre_3"/><radialGradient id="Degradado_sin_nombre_3-110" cx="786.83" cy="267.22" r="172.67" gradientTransform="matrix(1, 0, 0, 1, 0, 0)" xlink:href="#Degradado_sin_nombre_3"/><radialGradient id="Degradado_sin_nombre_3-112" cx="786.83" cy="267.22" r="172.67" gradientTransform="matrix(1, 0, 0, 1, 0, 0)" xlink:href="#Degradado_sin_nombre_3"/><radialGradient id="Degradado_sin_nombre_3-113" cx="786.83" cy="267.22" r="172.67" gradientTransform="matrix(1, 0, 0, 1, 0, 0)" xlink:href="#Degradado_sin_nombre_3"/><radialGradient id="Degradado_sin_nombre_3-114" cx="786.83" cy="267.22" r="172.67" gradientTransform="matrix(1, 0, 0, 1, 0, 0)" xlink:href="#Degradado_sin_nombre_3"/><radialGradient id="Degradado_sin_nombre_3-115" cx="786.83" cy="267.22" r="172.67" gradientTransform="matrix(1, 0, 0, 1, 0, 0)" xlink:href="#Degradado_sin_nombre_3"/><radialGradient id="Degradado_sin_nombre_3-116" cx="786.83" cy="267.22" r="172.67" gradientTransform="matrix(1, 0, 0, 1, 0, 0)" xlink:href="#Degradado_sin_nombre_3"/><radialGradient id="Degradado_sin_nombre_3-118" cx="786.83" cy="267.22" r="172.67" gradientTransform="matrix(1, 0, 0, 1, 0, 0)" xlink:href="#Degradado_sin_nombre_3"/><radialGradient id="Degradado_sin_nombre_3-119" cx="786.83" cy="267.22" r="172.67" gradientTransform="matrix(1, 0, 0, 1, 0, 0)" xlink:href="#Degradado_sin_nombre_3"/><radialGradient id="Degradado_sin_nombre_3-120" cx="786.83" cy="267.22" r="172.67" gradientTransform="matrix(1, 0, 0, 1, 0, 0)" xlink:href="#Degradado_sin_nombre_3"/><radialGradient id="Degradado_sin_nombre_3-121" cx="786.83" cy="267.22" r="172.67" gradientTransform="matrix(1, 0, 0, 1, 0, 0)" xlink:href="#Degradado_sin_nombre_3"/><radialGradient id="Degradado_sin_nombre_3-122" cx="786.83" cy="267.23" r="172.67" gradientTransform="matrix(1, 0, 0, 1, 0, 0)" xlink:href="#Degradado_sin_nombre_3"/><radialGradient id="Degradado_sin_nombre_3-123" cx="786.83" cy="267.22" r="172.67" gradientTransform="matrix(1, 0, 0, 1, 0, 0)" xlink:href="#Degradado_sin_nombre_3"/><radialGradient id="Degradado_sin_nombre_3-124" cx="786.83" cy="267.22" r="172.67" gradientTransform="matrix(1, 0, 0, 1, 0, 0)" xlink:href="#Degradado_sin_nombre_3"/><radialGradient id="Degradado_sin_nombre_3-125" cx="786.84" cy="267.22" r="172.68" gradientTransform="matrix(1, 0, 0, 1, 0, 0)" xlink:href="#Degradado_sin_nombre_3"/><radialGradient id="Degradado_sin_nombre_3-126" cx="739.46" cy="267.22" r="172.67" gradientTransform="matrix(1, 0, 0, 1, 0, 0)" xlink:href="#Degradado_sin_nombre_3"/><radialGradient id="Degradado_sin_nombre_3-127" cx="786.83" cy="267.22" r="172.67" gradientTransform="matrix(1, 0, 0, 1, 0, 0)" xlink:href="#Degradado_sin_nombre_3"/><radialGradient id="Degradado_sin_nombre_3-128" cx="786.83" cy="267.22" r="172.67" gradientTransform="matrix(1, 0, 0, 1, 0, 0)" xlink:href="#Degradado_sin_nombre_3"/><radialGradient id="Degradado_sin_nombre_3-129" cx="786.83" cy="267.22" r="172.67" gradientTransform="matrix(1, 0, 0, 1, 0, 0)" xlink:href="#Degradado_sin_nombre_3"/><radialGradient id="Degradado_sin_nombre_3-130" cx="721.02" cy="267.22" r="172.68" gradientTransform="matrix(1, 0, 0, 1, 0, 0)" xlink:href="#Degradado_sin_nombre_3"/><radialGradient id="Degradado_sin_nombre_3-131" cx="786.83" cy="267.22" r="172.67" gradientTransform="matrix(1, 0, 0, 1, 0, 0)" xlink:href="#Degradado_sin_nombre_3"/><radialGradient id="Degradado_sin_nombre_3-132" cx="786.83" cy="267.22" r="172.67" gradientTransform="matrix(1, 0, 0, 1, 0, 0)" xlink:href="#Degradado_sin_nombre_3"/><radialGradient id="Degradado_sin_nombre_3-133" cx="786.83" cy="267.22" r="172.67" gradientTransform="matrix(1, 0, 0, 1, 0, 0)" xlink:href="#Degradado_sin_nombre_3"/><radialGradient id="Degradado_sin_nombre_3-134" cx="786.83" cy="267.23" r="172.68" gradientTransform="matrix(1, 0, 0, 1, 0, 0)" xlink:href="#Degradado_sin_nombre_3"/><radialGradient id="Degradado_sin_nombre_3-135" cx="786.83" cy="267.22" r="172.67" gradientTransform="matrix(1, 0, 0, 1, 0, 0)" xlink:href="#Degradado_sin_nombre_3"/><radialGradient id="Degradado_sin_nombre_3-136" cx="786.84" cy="267.22" r="172.68" gradientTransform="matrix(1, 0, 0, 1, 0, 0)" xlink:href="#Degradado_sin_nombre_3"/><radialGradient id="Degradado_sin_nombre_3-137" cx="786.83" cy="267.22" r="172.67" gradientTransform="matrix(1, 0, 0, 1, 0, 0)" xlink:href="#Degradado_sin_nombre_3"/><radialGradient id="Degradado_sin_nombre_3-138" cx="786.83" cy="267.22" r="172.67" gradientTransform="matrix(1, 0, 0, 1, 0, 0)" xlink:href="#Degradado_sin_nombre_3"/><radialGradient id="Degradado_sin_nombre_3-139" cx="786.83" cy="267.22" r="172.67" gradientTransform="matrix(1, 0, 0, 1, 0, 0)" xlink:href="#Degradado_sin_nombre_3"/><radialGradient id="Degradado_sin_nombre_3-140" cx="786.83" cy="267.22" r="172.67" gradientTransform="matrix(1, 0, 0, 1, 0, 0)" xlink:href="#Degradado_sin_nombre_3"/><radialGradient id="Degradado_sin_nombre_3-141" cx="786.83" cy="267.22" r="172.67" gradientTransform="matrix(1, 0, 0, 1, 0, 0)" xlink:href="#Degradado_sin_nombre_3"/><radialGradient id="Degradado_sin_nombre_3-142" cx="786.83" cy="267.22" r="172.67" gradientTransform="matrix(1, 0, 0, 1, 0, 0)" xlink:href="#Degradado_sin_nombre_3"/><radialGradient id="Degradado_sin_nombre_3-143" cx="786.83" cy="267.22" r="172.67" gradientTransform="matrix(1, 0, 0, 1, 0, 0)" xlink:href="#Degradado_sin_nombre_3"/><radialGradient id="Degradado_sin_nombre_3-144" cx="786.83" cy="267.22" r="172.67" gradientTransform="matrix(1, 0, 0, 1, 0, 0)" xlink:href="#Degradado_sin_nombre_3"/><radialGradient id="Degradado_sin_nombre_3-145" cx="786.83" cy="267.22" r="172.67" gradientTransform="matrix(1, 0, 0, 1, 0, 0)" xlink:href="#Degradado_sin_nombre_3"/><radialGradient id="Degradado_sin_nombre_3-146" cx="786.83" cy="267.22" r="172.67" gradientTransform="matrix(1, 0, 0, 1, 0, 0)" xlink:href="#Degradado_sin_nombre_3"/><radialGradient id="Degradado_sin_nombre_3-148" cx="786.83" cy="267.22" r="172.67" gradientTransform="matrix(1, 0, 0, 1, 0, 0)" xlink:href="#Degradado_sin_nombre_3"/><radialGradient id="Degradado_sin_nombre_3-149" cx="776.79" cy="267.22" r="190.51" gradientTransform="matrix(1, 0, 0, 1, 0, 0)" xlink:href="#Degradado_sin_nombre_3"/><radialGradient id="Degradado_sin_nombre_3-150" cx="786.83" cy="267.22" r="172.67" gradientTransform="matrix(1, 0, 0, 1, 0, 0)" xlink:href="#Degradado_sin_nombre_3"/><radialGradient id="Degradado_sin_nombre_3-151" cx="786.83" cy="267.22" r="172.67" gradientTransform="matrix(1, 0, 0, 1, 0, 0)" xlink:href="#Degradado_sin_nombre_3"/><radialGradient id="Degradado_sin_nombre_3-153" cx="786.83" cy="267.22" r="172.67" gradientTransform="matrix(1, 0, 0, 1, 0, 0)" xlink:href="#Degradado_sin_nombre_3"/><radialGradient id="Degradado_sin_nombre_3-155" cx="786.83" cy="267.22" r="172.67" gradientTransform="matrix(1, 0, 0, 1, 0, 0)" xlink:href="#Degradado_sin_nombre_3"/><radialGradient id="Degradado_sin_nombre_3-156" cx="786.83" cy="267.22" r="172.67" gradientTransform="matrix(1, 0, 0, 1, 0, 0)" xlink:href="#Degradado_sin_nombre_3"/><radialGradient id="Degradado_sin_nombre_3-157" cx="786.83" cy="267.22" r="172.67" gradientTransform="matrix(1, 0, 0, 1, 0, 0)" xlink:href="#Degradado_sin_nombre_3"/><radialGradient id="Degradado_sin_nombre_3-158" cx="786.83" cy="267.22" r="172.67" gradientTransform="matrix(1, 0, 0, 1, 0, 0)" xlink:href="#Degradado_sin_nombre_3"/><radialGradient id="Degradado_sin_nombre_3-159" cx="786.83" cy="267.22" r="172.67" gradientTransform="matrix(1, 0, 0, 1, 0, 0)" xlink:href="#Degradado_sin_nombre_3"/><radialGradient id="Degradado_sin_nombre_3-160" cx="786.83" cy="267.22" r="172.67" gradientTransform="matrix(1, 0, 0, 1, 0, 0)" xlink:href="#Degradado_sin_nombre_3"/><radialGradient id="Degradado_sin_nombre_3-161" cx="786.84" cy="267.22" r="172.68" gradientTransform="matrix(1, 0, 0, 1, 0, 0)" xlink:href="#Degradado_sin_nombre_3"/><radialGradient id="Degradado_sin_nombre_3-162" cx="786.84" cy="267.22" r="172.67" gradientTransform="matrix(1, 0, 0, 1, 0, 0)" xlink:href="#Degradado_sin_nombre_3"/><radialGradient id="Degradado_sin_nombre_3-163" cx="786.83" cy="267.22" r="172.67" gradientTransform="matrix(1, 0, 0, 1, 0, 0)" xlink:href="#Degradado_sin_nombre_3"/><radialGradient id="Degradado_sin_nombre_3-164" cx="786.83" cy="267.22" r="172.67" gradientTransform="matrix(1, 0, 0, 1, 0, 0)" xlink:href="#Degradado_sin_nombre_3"/><radialGradient id="Degradado_sin_nombre_3-165" cx="744.25" cy="267.22" r="172.67" gradientTransform="matrix(1, 0, 0, 1, 0, 0)" xlink:href="#Degradado_sin_nombre_3"/><radialGradient id="Degradado_sin_nombre_3-166" cx="786.84" cy="267.22" r="172.68" gradientTransform="matrix(1, 0, 0, 1, 0, 0)" xlink:href="#Degradado_sin_nombre_3"/><radialGradient id="Degradado_sin_nombre_3-167" cx="786.83" cy="267.22" r="172.67" gradientTransform="matrix(1, 0, 0, 1, 0, 0)" xlink:href="#Degradado_sin_nombre_3"/><radialGradient id="Degradado_sin_nombre_3-168" cx="786.83" cy="267.22" r="172.67" gradientTransform="matrix(1, 0, 0, 1, 0, 0)" xlink:href="#Degradado_sin_nombre_3"/><radialGradient id="Degradado_sin_nombre_3-169" cx="786.83" cy="267.22" r="172.67" gradientTransform="matrix(1, 0, 0, 1, 0, 0)" xlink:href="#Degradado_sin_nombre_3"/><radialGradient id="Degradado_sin_nombre_3-170" cx="786.83" cy="267.22" r="172.68" gradientTransform="matrix(1, 0, 0, 1, 0, 0)" xlink:href="#Degradado_sin_nombre_3"/><radialGradient id="Degradado_sin_nombre_3-171" cx="786.83" cy="267.22" r="172.67" gradientTransform="matrix(1, 0, 0, 1, 0, 0)" xlink:href="#Degradado_sin_nombre_3"/><radialGradient id="Degradado_sin_nombre_3-172" cx="786.84" cy="267.22" r="172.68" gradientTransform="matrix(1, 0, 0, 1, 0, 0)" xlink:href="#Degradado_sin_nombre_3"/><radialGradient id="Degradado_sin_nombre_2" cx="548.46" cy="70.05" r="7.56" gradientUnits="userSpaceOnUse"><stop offset="0" stop-color="#82ffff"/><stop offset="1" stop-color="#82ffff" stop-opacity="0"/></radialGradient><radialGradient id="Degradado_sin_nombre_2-2" cx="697.18" cy="111.53" r="7.56" xlink:href="#Degradado_sin_nombre_2"/><radialGradient id="Degradado_sin_nombre_2-3" cx="590.22" cy="174.37" r="7.56" gradientTransform="translate(111.66 -212.6) rotate(22.5)" xlink:href="#Degradado_sin_nombre_2"/><radialGradient id="Degradado_sin_nombre_2-4" cx="640.17" cy="256.77" r="7.56" xlink:href="#Degradado_sin_nombre_2"/><radialGradient id="Degradado_sin_nombre_2-5" cx="607.72" cy="448.1" r="7.56" xlink:href="#Degradado_sin_nombre_2"/><radialGradient id="Degradado_sin_nombre_2-6" cx="697.28" cy="378.78" r="7.56" xlink:href="#Degradado_sin_nombre_2"/><radialGradient id="Degradado_sin_nombre_2-7" cx="517.42" cy="287.92" r="7.56" xlink:href="#Degradado_sin_nombre_2"/><radialGradient id="Degradado_sin_nombre_3-173" cx="1013.08" cy="2426.73" r="172.67" gradientTransform="translate(974.75 2648.39) rotate(180)" xlink:href="#Degradado_sin_nombre_3"/><radialGradient id="Degradado_sin_nombre_3-174" cx="1013.08" cy="2426.73" r="172.67" gradientTransform="translate(974.75 2648.39) rotate(180)" xlink:href="#Degradado_sin_nombre_3"/><radialGradient id="Degradado_sin_nombre_3-175" cx="1013.08" cy="2426.73" r="172.67" gradientTransform="translate(974.75 2648.39) rotate(180)" xlink:href="#Degradado_sin_nombre_3"/><radialGradient id="Degradado_sin_nombre_3-176" cx="1013.08" cy="2426.73" r="172.67" gradientTransform="translate(974.75 2648.39) rotate(180)" xlink:href="#Degradado_sin_nombre_3"/><radialGradient id="Degradado_sin_nombre_3-177" cx="1013.08" cy="2426.73" r="172.67" gradientTransform="translate(974.75 2648.39) rotate(180)" xlink:href="#Degradado_sin_nombre_3"/><radialGradient id="Degradado_sin_nombre_3-178" cx="1002.67" cy="2426.73" r="186.77" gradientTransform="translate(974.75 2648.39) rotate(180)" xlink:href="#Degradado_sin_nombre_3"/><radialGradient id="Degradado_sin_nombre_3-179" cx="999.17" cy="2426.73" r="200.16" gradientTransform="translate(974.75 2648.39) rotate(180)" xlink:href="#Degradado_sin_nombre_3"/><radialGradient id="Degradado_sin_nombre_3-180" cx="1013.08" cy="2426.73" r="172.67" gradientTransform="translate(974.75 2648.39) rotate(180)" xlink:href="#Degradado_sin_nombre_3"/><radialGradient id="Degradado_sin_nombre_3-181" cx="1013.08" cy="2426.73" r="172.67" gradientTransform="translate(974.75 2648.39) rotate(180)" xlink:href="#Degradado_sin_nombre_3"/><radialGradient id="Degradado_sin_nombre_3-182" cx="1013.08" cy="2426.73" r="172.67" gradientTransform="translate(974.75 2648.39) rotate(180)" xlink:href="#Degradado_sin_nombre_3"/><radialGradient id="Degradado_sin_nombre_3-183" cx="1013.08" cy="2426.73" r="172.67" gradientTransform="translate(974.75 2648.39) rotate(180)" xlink:href="#Degradado_sin_nombre_3"/><radialGradient id="Degradado_sin_nombre_3-184" cx="1013.08" cy="2426.73" r="172.67" gradientTransform="translate(974.75 2648.39) rotate(180)" xlink:href="#Degradado_sin_nombre_3"/><radialGradient id="Degradado_sin_nombre_3-185" cx="1013.08" cy="2426.73" r="172.67" gradientTransform="translate(974.75 2648.39) rotate(180)" xlink:href="#Degradado_sin_nombre_3"/><radialGradient id="Degradado_sin_nombre_3-186" cx="1013.08" cy="2426.73" r="172.67" gradientTransform="translate(974.75 2648.39) rotate(180)" xlink:href="#Degradado_sin_nombre_3"/><radialGradient id="Degradado_sin_nombre_3-187" cx="1013.08" cy="2426.73" r="172.67" gradientTransform="translate(974.75 2648.39) rotate(180)" xlink:href="#Degradado_sin_nombre_3"/><radialGradient id="Degradado_sin_nombre_3-188" cx="1013.08" cy="2426.73" r="172.67" gradientTransform="translate(974.75 2648.39) rotate(180)" xlink:href="#Degradado_sin_nombre_3"/><radialGradient id="Degradado_sin_nombre_3-190" cx="1013.08" cy="2426.73" r="172.67" gradientTransform="translate(974.75 2648.39) rotate(180)" xlink:href="#Degradado_sin_nombre_3"/><radialGradient id="Degradado_sin_nombre_3-191" cx="1013.08" cy="2426.73" r="172.67" gradientTransform="translate(974.75 2648.39) rotate(180)" xlink:href="#Degradado_sin_nombre_3"/><radialGradient id="Degradado_sin_nombre_3-192" cx="1013.08" cy="2426.74" r="172.68" gradientTransform="translate(974.75 2648.39) rotate(180)" xlink:href="#Degradado_sin_nombre_3"/><radialGradient id="Degradado_sin_nombre_3-193" cx="1013.08" cy="2426.73" r="172.67" gradientTransform="translate(974.75 2648.39) rotate(180)" xlink:href="#Degradado_sin_nombre_3"/><radialGradient id="Degradado_sin_nombre_3-194" cx="1013.09" cy="2426.73" r="172.68" gradientTransform="translate(974.75 2648.39) rotate(180)" xlink:href="#Degradado_sin_nombre_3"/><radialGradient id="Degradado_sin_nombre_3-195" cx="1013.08" cy="2426.73" r="172.67" gradientTransform="translate(974.75 2648.39) rotate(180)" xlink:href="#Degradado_sin_nombre_3"/><radialGradient id="Degradado_sin_nombre_3-196" cx="1013.08" cy="2426.73" r="172.67" gradientTransform="translate(974.75 2648.39) rotate(180)" xlink:href="#Degradado_sin_nombre_3"/><radialGradient id="Degradado_sin_nombre_3-197" cx="1013.08" cy="2426.73" r="172.67" gradientTransform="translate(974.75 2648.39) rotate(180)" xlink:href="#Degradado_sin_nombre_3"/><radialGradient id="Degradado_sin_nombre_3-198" cx="965.7" cy="2426.73" r="172.67" gradientTransform="translate(974.75 2648.39) rotate(180)" xlink:href="#Degradado_sin_nombre_3"/><radialGradient id="Degradado_sin_nombre_3-199" cx="1013.08" cy="2426.73" r="172.67" gradientTransform="translate(974.75 2648.39) rotate(180)" xlink:href="#Degradado_sin_nombre_3"/><radialGradient id="Degradado_sin_nombre_3-200" cx="1013.08" cy="2426.73" r="172.67" gradientTransform="translate(974.75 2648.39) rotate(180)" xlink:href="#Degradado_sin_nombre_3"/><radialGradient id="Degradado_sin_nombre_3-201" cx="1013.08" cy="2426.73" r="172.67" gradientTransform="translate(974.75 2648.39) rotate(180)" xlink:href="#Degradado_sin_nombre_3"/><radialGradient id="Degradado_sin_nombre_3-202" cx="947.27" cy="2426.74" r="172.68" gradientTransform="translate(974.75 2648.39) rotate(180)" xlink:href="#Degradado_sin_nombre_3"/><radialGradient id="Degradado_sin_nombre_3-203" cx="1013.08" cy="2426.73" r="172.67" gradientTransform="translate(974.75 2648.39) rotate(180)" xlink:href="#Degradado_sin_nombre_3"/><radialGradient id="Degradado_sin_nombre_3-204" cx="1013.08" cy="2426.74" r="172.67" gradientTransform="translate(974.75 2648.39) rotate(180)" xlink:href="#Degradado_sin_nombre_3"/><radialGradient id="Degradado_sin_nombre_3-205" cx="1013.08" cy="2426.73" r="172.67" gradientTransform="translate(974.75 2648.39) rotate(180)" xlink:href="#Degradado_sin_nombre_3"/><radialGradient id="Degradado_sin_nombre_3-206" cx="1013.08" cy="2426.73" r="172.67" gradientTransform="translate(974.75 2648.39) rotate(180)" xlink:href="#Degradado_sin_nombre_3"/><radialGradient id="Degradado_sin_nombre_3-207" cx="1013.08" cy="2426.73" r="172.67" gradientTransform="translate(974.75 2648.39) rotate(180)" xlink:href="#Degradado_sin_nombre_3"/><radialGradient id="Degradado_sin_nombre_3-208" cx="1013.08" cy="2426.73" r="172.68" gradientTransform="translate(974.75 2648.39) rotate(180)" xlink:href="#Degradado_sin_nombre_3"/><radialGradient id="Degradado_sin_nombre_3-209" cx="1013.08" cy="2426.73" r="172.67" gradientTransform="translate(974.75 2648.39) rotate(180)" xlink:href="#Degradado_sin_nombre_3"/><radialGradient id="Degradado_sin_nombre_3-210" cx="1013.08" cy="2426.73" r="172.67" gradientTransform="translate(974.75 2648.39) rotate(180)" xlink:href="#Degradado_sin_nombre_3"/><radialGradient id="Degradado_sin_nombre_3-211" cx="1013.08" cy="2426.73" r="172.67" gradientTransform="translate(974.75 2648.39) rotate(180)" xlink:href="#Degradado_sin_nombre_3"/><radialGradient id="Degradado_sin_nombre_3-212" cx="1013.08" cy="2426.73" r="172.67" gradientTransform="translate(974.75 2648.39) rotate(180)" xlink:href="#Degradado_sin_nombre_3"/><radialGradient id="Degradado_sin_nombre_3-213" cx="1013.08" cy="2426.73" r="172.67" gradientTransform="translate(974.75 2648.39) rotate(180)" xlink:href="#Degradado_sin_nombre_3"/><radialGradient id="Degradado_sin_nombre_3-214" cx="1013.08" cy="2426.73" r="172.67" gradientTransform="translate(974.75 2648.39) rotate(180)" xlink:href="#Degradado_sin_nombre_3"/><radialGradient id="Degradado_sin_nombre_3-215" cx="1013.08" cy="2426.73" r="172.67" gradientTransform="translate(974.75 2648.39) rotate(180)" xlink:href="#Degradado_sin_nombre_3"/><radialGradient id="Degradado_sin_nombre_3-216" cx="1013.08" cy="2426.73" r="172.67" gradientTransform="translate(974.75 2648.39) rotate(180)" xlink:href="#Degradado_sin_nombre_3"/><radialGradient id="Degradado_sin_nombre_3-217" cx="1013.08" cy="2426.73" r="172.67" gradientTransform="translate(974.75 2648.39) rotate(180)" xlink:href="#Degradado_sin_nombre_3"/><radialGradient id="Degradado_sin_nombre_3-218" cx="1013.08" cy="2426.73" r="172.67" gradientTransform="translate(974.75 2648.39) rotate(180)" xlink:href="#Degradado_sin_nombre_3"/><radialGradient id="Degradado_sin_nombre_3-221" cx="1003.04" cy="2426.73" r="190.51" gradientTransform="translate(974.75 2648.39) rotate(180)" xlink:href="#Degradado_sin_nombre_3"/><radialGradient id="Degradado_sin_nombre_3-222" cx="1013.08" cy="2426.73" r="172.67" gradientTransform="translate(974.75 2648.39) rotate(180)" xlink:href="#Degradado_sin_nombre_3"/><radialGradient id="Degradado_sin_nombre_3-223" cx="1013.08" cy="2426.73" r="172.67" gradientTransform="translate(974.75 2648.39) rotate(180)" xlink:href="#Degradado_sin_nombre_3"/><radialGradient id="Degradado_sin_nombre_3-225" cx="1013.08" cy="2426.73" r="172.67" gradientTransform="translate(974.75 2648.39) rotate(180)" xlink:href="#Degradado_sin_nombre_3"/><radialGradient id="Degradado_sin_nombre_3-227" cx="1013.08" cy="2426.74" r="172.67" gradientTransform="translate(974.75 2648.39) rotate(180)" xlink:href="#Degradado_sin_nombre_3"/><radialGradient id="Degradado_sin_nombre_3-228" cx="1013.08" cy="2426.74" r="172.67" gradientTransform="translate(974.75 2648.39) rotate(180)" xlink:href="#Degradado_sin_nombre_3"/><radialGradient id="Degradado_sin_nombre_3-229" cx="1013.08" cy="2426.73" r="172.67" gradientTransform="translate(974.75 2648.39) rotate(180)" xlink:href="#Degradado_sin_nombre_3"/><radialGradient id="Degradado_sin_nombre_3-230" cx="1013.09" cy="2426.73" r="172.68" gradientTransform="translate(974.75 2648.39) rotate(180)" xlink:href="#Degradado_sin_nombre_3"/><radialGradient id="Degradado_sin_nombre_3-231" cx="1013.08" cy="2426.74" r="172.67" gradientTransform="translate(974.75 2648.39) rotate(180)" xlink:href="#Degradado_sin_nombre_3"/><radialGradient id="Degradado_sin_nombre_3-232" cx="1013.08" cy="2426.73" r="172.67" gradientTransform="translate(974.75 2648.39) rotate(180)" xlink:href="#Degradado_sin_nombre_3"/><radialGradient id="Degradado_sin_nombre_3-233" cx="1013.08" cy="2426.73" r="172.67" gradientTransform="translate(974.75 2648.39) rotate(180)" xlink:href="#Degradado_sin_nombre_3"/><radialGradient id="Degradado_sin_nombre_3-234" cx="1013.08" cy="2426.73" r="172.67" gradientTransform="translate(974.75 2648.39) rotate(180)" xlink:href="#Degradado_sin_nombre_3"/><radialGradient id="Degradado_sin_nombre_3-235" cx="1013.08" cy="2426.73" r="172.67" gradientTransform="translate(974.75 2648.39) rotate(180)" xlink:href="#Degradado_sin_nombre_3"/><radialGradient id="Degradado_sin_nombre_3-236" cx="1013.08" cy="2426.73" r="172.67" gradientTransform="translate(974.75 2648.39) rotate(180)" xlink:href="#Degradado_sin_nombre_3"/><radialGradient id="Degradado_sin_nombre_3-237" cx="970.5" cy="2426.73" r="172.67" gradientTransform="translate(974.75 2648.39) rotate(180)" xlink:href="#Degradado_sin_nombre_3"/><radialGradient id="Degradado_sin_nombre_3-238" cx="1013.09" cy="2426.73" r="172.68" gradientTransform="translate(974.75 2648.39) rotate(180)" xlink:href="#Degradado_sin_nombre_3"/><radialGradient id="Degradado_sin_nombre_3-239" cx="1013.08" cy="2426.73" r="172.67" gradientTransform="translate(974.75 2648.39) rotate(180)" xlink:href="#Degradado_sin_nombre_3"/><radialGradient id="Degradado_sin_nombre_3-240" cx="1013.08" cy="2426.73" r="172.67" gradientTransform="translate(974.75 2648.39) rotate(180)" xlink:href="#Degradado_sin_nombre_3"/><radialGradient id="Degradado_sin_nombre_3-241" cx="1013.08" cy="2426.73" r="172.67" gradientTransform="translate(974.75 2648.39) rotate(180)" xlink:href="#Degradado_sin_nombre_3"/><radialGradient id="Degradado_sin_nombre_3-242" cx="1013.08" cy="2426.74" r="172.67" gradientTransform="translate(974.75 2648.39) rotate(180)" xlink:href="#Degradado_sin_nombre_3"/><radialGradient id="Degradado_sin_nombre_3-243" cx="1013.08" cy="2426.73" r="172.67" gradientTransform="translate(974.75 2648.39) rotate(180)" xlink:href="#Degradado_sin_nombre_3"/><radialGradient id="Degradado_sin_nombre_3-244" cx="1013.08" cy="2426.73" r="172.68" gradientTransform="translate(974.75 2648.39) rotate(180)" xlink:href="#Degradado_sin_nombre_3"/><radialGradient id="Degradado_sin_nombre_2-8" cx="774.7" cy="2229.56" r="7.56" gradientTransform="translate(974.75 2648.39) rotate(180)" xlink:href="#Degradado_sin_nombre_2"/><radialGradient id="Degradado_sin_nombre_2-9" cx="923.42" cy="2271.04" r="7.56" gradientTransform="translate(974.75 2648.39) rotate(180)" xlink:href="#Degradado_sin_nombre_2"/><radialGradient id="Degradado_sin_nombre_2-10" cx="816.47" cy="2333.88" r="7.56" gradientTransform="translate(974.75 2648.39) rotate(180)" xlink:href="#Degradado_sin_nombre_2"/><radialGradient id="Degradado_sin_nombre_2-11" cx="866.42" cy="2416.28" r="7.56" gradientTransform="translate(974.75 2648.39) rotate(180)" xlink:href="#Degradado_sin_nombre_2"/><radialGradient id="Degradado_sin_nombre_2-12" cx="833.96" cy="2607.62" r="7.56" gradientTransform="translate(974.75 2648.39) rotate(180)" xlink:href="#Degradado_sin_nombre_2"/><radialGradient id="Degradado_sin_nombre_2-13" cx="923.53" cy="2538.29" r="7.56" gradientTransform="translate(974.75 2648.39) rotate(180)" xlink:href="#Degradado_sin_nombre_2"/><radialGradient id="Degradado_sin_nombre_2-14" cx="743.67" cy="2447.43" r="7.56" gradientTransform="translate(974.75 2648.39) rotate(180)" xlink:href="#Degradado_sin_nombre_2"/></defs><title>2220082</title><rect class="cls-2" width="750" height="500"/><g class="cls-3"><g class="cls-4"><path class="cls-5" d="M200.45.89v59l0,.05L191.61,69v42.61h-.35V68.88l.05,0,8.79-9.1V1L164.43-34.33V-89.51c-9-9-22.73-22.51-23.6-22.79a.14.14,0,0,0,.11,0l-.08-.11h-.2v-65.93l.05,0L152.54-190v-12.12h.35v12.27l0,.05L141-178.23v65.64c.56.31,2.66,2.1,12.08,11.34,5.8,5.69,11.59,11.49,11.65,11.54l.05.06v55.18Z"/><polygon class="cls-6" points="182.68 -201.47 182.68 -162.47 156.76 -135.04 156.76 -109.08 182.07 -84.08 182.07 6.14 163.17 24.12 163.17 52.79 161.78 52.79 161.78 23.53 180.68 5.54 180.68 -83.5 155.38 -108.5 155.38 -135.59 181.29 -163.03 181.29 -201.47 182.68 -201.47"/><polygon class="cls-7" points="323.92 121.98 323.92 189.79 321.14 189.79 321.14 123.22 307.36 110.88 266.14 110.88 244.62 88.1 244.62 10.06 194.93 -41.16 194.93 -66.34 218.1 -91.65 218.1 -200.86 220.87 -200.86 220.87 -90.57 197.7 -65.26 197.7 -42.28 247.39 8.94 247.39 86.99 267.33 108.11 308.43 108.11 323.92 121.98"/><polygon class="cls-8" points="358.06 125.66 358.06 224.21 357.36 224.21 357.36 125.94 335.93 103.36 230.09 103.36 209.41 82.68 209.41 32.5 209.51 32.4 250.36 -8.17 250.36 -97 229.31 -117.48 229.31 -201.55 230 -201.55 230 -117.77 251.05 -97.29 251.05 -7.88 250.95 -7.78 210.1 32.79 210.1 82.4 230.37 102.67 336.23 102.67 336.33 102.78 358.06 125.66"/><polygon class="cls-9" points="297.17 -3.95 297.17 69.8 294.4 69.8 294.4 -2.79 268.82 -28.14 268.82 -123.33 237.69 -154.25 237.69 -201.08 240.46 -201.08 240.46 -155.4 271.6 -124.49 271.6 -29.3 297.17 -3.95"/><polygon class="cls-10" points="258.89 -129.67 258.89 -106.5 258.69 -106.29 205.52 -53.79 205.52 -18.78 230.43 6.13 230.43 88.86 245.99 103.98 245.99 120.51 244.61 120.51 244.61 104.57 229.04 89.44 229.04 6.7 204.13 -18.2 204.13 -54.37 204.34 -54.57 257.51 -107.08 257.51 -129.13 246.61 -140.83 246.61 -200.86 248 -200.86 248 -141.37 258.89 -129.67"/><polygon class="cls-11" points="278.98 -131.09 278.98 2.13 255.03 26.09 255.03 63.42 275.76 84.52 275.76 130.92 274.38 130.92 274.38 85.08 253.64 63.99 253.64 25.52 277.59 1.56 277.59 -130.52 260.79 -147.68 260.79 -203.03 262.18 -203.03 262.18 -148.25 278.98 -131.09"/><polygon class="cls-12" points="359.32 -63.71 359.32 53.91 359.27 53.96 339.15 73.74 339.15 135.92 338.8 135.92 338.8 73.59 338.85 73.54 358.97 53.77 358.97 -63.56 342.98 -79.29 342.98 -145.71 309.59 -175.27 309.59 -203.87 309.93 -203.87 309.93 -175.43 343.32 -145.87 343.32 -79.43 359.32 -63.71"/><polygon class="cls-12" points="339.32 -203.87 339.32 -176.95 304.19 -142.17 304.19 -42.3 335.15 -13.08 335.15 48.42 307.32 76.24 307.32 128.61 306.63 128.61 306.63 75.95 334.45 48.13 334.45 -12.79 303.5 -42 303.5 -142.46 338.63 -177.24 338.63 -203.87 339.32 -203.87"/><polygon class="cls-13" points="318.63 -183.42 318.63 -76.86 318.58 -76.81 288.02 -45.56 288.02 12.53 287.97 12.58 266.81 31.66 266.81 53.14 266.46 53.14 266.46 31.5 266.52 31.45 287.68 12.38 287.68 -45.7 287.73 -45.75 318.28 -77 318.28 -183.28 299.55 -204.1 299.8 -204.33 318.63 -183.42"/><polygon class="cls-14" points="356.71 -159.93 356.71 -72.78 346.62 -64.43 346.62 -17.17 346.42 -16.97 282.63 47.86 282.63 132.84 295.63 145.15 294.68 146.16 281.24 133.43 281.24 47.3 281.44 47.09 345.24 -17.74 345.24 -65.08 355.32 -73.43 355.32 -159.47 348.37 -168.86 348.37 -202.83 349.75 -202.83 349.75 -169.32 356.71 -159.93"/><polygon class="cls-15" points="284.89 -123.53 284.89 -100.15 284.84 -100.1 259.85 -76.85 259.85 -41.73 259.8 -41.68 190.29 27.48 190.29 51.41 189.95 51.41 189.95 27.34 190 27.29 259.51 -41.87 259.51 -77 259.56 -77.05 284.55 -100.3 284.55 -123.53 284.89 -123.53"/><polygon class="cls-16" points="354.62 -2.04 354.62 19.41 351.85 19.41 351.85 -0.88 330.28 -22.09 330.28 -62.75 309.07 -82.23 309.07 -154.95 295.85 -168.17 295.85 -183.35 298.63 -183.35 298.63 -169.32 311.84 -156.1 311.84 -83.45 333.06 -63.97 333.06 -23.25 354.62 -2.04"/><circle class="cls-17" cx="190.11" cy="51.94" r="1.43"/><circle class="cls-18" cx="245.27" cy="121.51" r="1.43"/><path class="cls-19" d="M162.45,52.21a1.43,1.43,0,1,1,0,2.85,1.43,1.43,0,0,1,0-2.85Z"/><circle class="cls-20" cx="191.43" cy="112.91" r="1.43"/><circle class="cls-21" cx="275.19" cy="131.69" r="1.43"/><path class="cls-22" d="M322.56,189a2.4,2.4,0,1,1-2.4,2.4A2.4,2.4,0,0,1,322.56,189Z"/><path class="cls-23" d="M353.2,18.71a2.4,2.4,0,1,1-2.39,2.39A2.39,2.39,0,0,1,353.2,18.71Z"/><path class="cls-24" d="M295.71,68.65a2.4,2.4,0,1,1-2.4,2.4A2.4,2.4,0,0,1,295.71,68.65Z"/><circle class="cls-25" cx="307.1" cy="129.57" r="1.43"/><circle class="cls-26" cx="357.69" cy="225.14" r="1.43"/><circle class="cls-27" cx="295.92" cy="146.23" r="1.43"/><path class="cls-28" d="M339.07,135.49a1.43,1.43,0,1,1-1.43,1.42A1.43,1.43,0,0,1,339.07,135.49Z"/><path class="cls-29" d="M266.63,52.85a1.43,1.43,0,1,1-1.42,1.43A1.43,1.43,0,0,1,266.63,52.85Z"/><path class="cls-11" d="M591-178.37v65.93h-.18l-.1.11a.13.13,0,0,0,.11,0c-.88.28-14.58,13.76-23.61,22.79v55.18l-.05,0L531.53,1v58.7l8.84,9.15v42.75H540V69l-8.84-9.15V.89l0-.05,35.62-35.31V-89.65l0-.06c.05-.05,5.85-5.85,11.65-11.54,9.41-9.24,11.51-11,12.07-11.34v-65.64l-11.89-11.58v-12.27h.35V-190Z"/><polygon class="cls-30" points="576.26 -135.59 576.26 -108.5 550.95 -83.5 550.95 5.54 569.86 23.53 569.86 52.79 568.47 52.79 568.47 24.12 549.57 6.14 549.57 -84.08 574.87 -109.08 574.87 -135.04 548.96 -162.47 548.96 -201.47 550.34 -201.47 550.34 -163.03 576.26 -135.59"/><polygon class="cls-31" points="536.71 -66.34 536.71 -41.16 487.02 10.06 487.02 88.1 465.5 110.88 424.27 110.88 410.49 123.22 410.49 142.42 407.72 142.42 407.72 121.98 423.21 108.11 464.3 108.11 484.24 86.99 484.24 8.94 533.94 -42.28 533.94 -65.26 510.77 -90.57 510.77 -200.86 513.54 -200.86 513.54 -91.65 536.71 -66.34"/><polygon class="cls-32" points="522.23 32.5 522.23 82.68 501.55 103.36 395.7 103.36 374.27 125.94 374.27 158.39 373.58 158.39 373.58 125.66 373.68 125.56 395.41 102.67 501.26 102.67 521.54 82.4 521.54 32.79 480.58 -7.88 480.58 -97.29 480.69 -97.39 501.64 -117.77 501.64 -201.55 502.33 -201.55 502.33 -117.48 502.22 -117.38 481.28 -97 481.28 -8.17 522.23 32.5"/><polygon class="cls-33" points="493.95 -201.08 493.95 -154.25 462.81 -123.33 462.81 -28.14 437.24 -2.79 437.24 69.8 434.46 69.8 434.46 -3.95 460.04 -29.3 460.04 -124.49 491.18 -155.4 491.18 -201.08 493.95 -201.08"/><polygon class="cls-34" points="527.51 -54.37 527.51 -18.2 502.6 6.7 502.6 89.44 487.03 104.57 487.03 120.51 485.64 120.51 485.64 103.98 501.21 88.86 501.21 6.13 526.12 -18.78 526.12 -53.79 472.74 -106.5 472.74 -129.67 483.64 -141.37 483.64 -200.86 485.03 -200.86 485.03 -140.83 474.13 -129.13 474.13 -107.08 527.51 -54.37"/><polygon class="cls-35" points="478 25.52 478 63.99 457.26 85.08 457.26 130.92 455.87 130.92 455.87 84.52 476.61 63.42 476.61 26.09 452.65 2.13 452.65 -131.09 469.46 -148.25 469.46 -203.03 470.85 -203.03 470.85 -147.68 454.04 -130.52 454.04 1.56 478 25.52"/><polygon class="cls-10" points="422.05 -203.87 422.05 -175.27 421.99 -175.22 388.66 -145.71 388.66 -79.29 388.61 -79.24 372.66 -63.56 372.66 53.77 392.83 73.59 392.83 135.92 392.49 135.92 392.49 73.74 372.32 53.91 372.32 -63.71 372.37 -63.76 388.31 -79.43 388.31 -145.87 388.37 -145.92 421.7 -175.43 421.7 -203.87 422.05 -203.87"/><polygon class="cls-36" points="428.13 -142.46 428.13 -42 428.03 -41.9 397.18 -12.79 397.18 48.13 425 75.95 425 171.19 424.31 171.19 424.31 76.24 396.49 48.42 396.49 -13.08 396.6 -13.19 427.44 -42.3 427.44 -142.17 392.31 -176.95 392.31 -203.87 393.01 -203.87 393.01 -177.24 428.13 -142.46"/><polygon class="cls-37" points="465.18 31.5 465.18 53.14 464.83 53.14 464.83 31.66 443.61 12.53 443.61 -45.56 413.01 -76.86 413.01 -183.42 413.05 -183.47 431.83 -204.33 432.09 -204.1 413.35 -183.28 413.35 -77 443.96 -45.7 443.96 12.38 465.18 31.5"/><polygon class="cls-38" points="450.39 47.3 450.39 133.43 436.96 146.16 436.01 145.15 449 132.84 449 47.86 385.01 -17.17 385.01 -64.43 374.93 -72.78 374.93 -159.93 381.88 -169.32 381.88 -202.83 383.27 -202.83 383.27 -168.86 376.31 -159.47 376.31 -73.43 386.4 -65.08 386.4 -17.74 450.39 47.3"/><polygon class="cls-39" points="541.69 27.34 541.69 51.41 541.34 51.41 541.34 27.48 471.78 -41.73 471.78 -76.85 446.74 -100.15 446.74 -123.53 447.09 -123.53 447.09 -100.3 472.13 -77 472.13 -41.87 541.69 27.34"/><polygon class="cls-40" points="435.78 -183.35 435.78 -168.17 422.57 -154.95 422.57 -82.23 401.35 -62.75 401.35 -22.09 379.79 -0.88 379.79 19.41 377.01 19.41 377.01 -2.04 398.58 -23.25 398.58 -63.97 419.79 -83.45 419.79 -156.1 433.01 -169.32 433.01 -183.35 435.78 -183.35"/><circle class="cls-41" cx="541.52" cy="51.94" r="1.43"/><circle class="cls-42" cx="486.37" cy="121.51" r="1.43"/><circle class="cls-43" cx="569.18" cy="53.64" r="1.43"/><circle class="cls-44" cx="540.21" cy="112.91" r="1.43"/><circle class="cls-45" cx="456.44" cy="131.69" r="1.43"/><path class="cls-46" d="M409.07,141.67a2.4,2.4,0,1,0,2.4,2.4A2.39,2.39,0,0,0,409.07,141.67Z"/><path class="cls-47" d="M378.43,18.71a2.4,2.4,0,1,0,2.4,2.39A2.4,2.4,0,0,0,378.43,18.71Z"/><path class="cls-48" d="M435.93,68.65a2.4,2.4,0,1,0,2.39,2.4A2.39,2.39,0,0,0,435.93,68.65Z"/><path class="cls-49" d="M424.54,170.72a1.43,1.43,0,1,0,1.42,1.43A1.43,1.43,0,0,0,424.54,170.72Z"/><path class="cls-50" d="M374,157.9a1.43,1.43,0,1,0,1.43,1.42A1.43,1.43,0,0,0,374,157.9Z"/><circle class="cls-51" cx="435.71" cy="146.23" r="1.43"/><circle class="cls-52" cx="392.57" cy="136.91" r="1.43"/><circle class="cls-53" cx="465" cy="54.28" r="1.43"/></g><g class="cls-4"><path class="cls-54" d="M528.29,539.28v-59l.05-.05,8.79-9.09V428.54h.35v42.75l-.05,0-8.79,9.09v58.7L564.3,574.5v55.18c9,9,22.73,22.51,23.61,22.79a.12.12,0,0,0-.11,0l.08.12h.2v65.94l-.05.05-11.84,11.53v12.12h-.34V730l0-.05,11.84-11.54V652.75c-.57-.3-2.66-2.1-12.08-11.34-5.8-5.69-11.59-11.48-11.65-11.54l0,0V574.64Z"/><polygon class="cls-55" points="546.06 741.63 546.06 702.64 571.97 675.2 571.97 649.25 546.67 624.25 546.67 534.03 565.57 516.04 565.57 487.38 566.96 487.38 566.96 516.63 548.06 534.62 548.06 623.67 573.36 648.66 573.36 675.75 547.45 703.19 547.45 741.63 546.06 741.63"/><polygon class="cls-56" points="404.82 418.18 404.82 350.37 407.6 350.37 407.6 416.94 421.37 429.28 462.6 429.28 484.12 452.07 484.12 530.11 533.81 581.32 533.81 606.51 510.64 631.81 510.64 741.02 507.87 741.02 507.87 630.73 531.04 605.43 531.04 582.45 481.35 531.23 481.35 453.17 461.4 432.06 420.31 432.06 404.82 418.18"/><polygon class="cls-57" points="370.68 414.5 370.68 315.95 371.38 315.95 371.38 414.23 392.81 436.8 498.65 436.8 519.33 457.48 519.33 507.67 519.23 507.77 478.38 548.33 478.38 637.16 499.43 657.64 499.43 741.72 498.74 741.72 498.74 657.93 477.69 637.46 477.69 548.04 477.79 547.94 518.64 507.38 518.64 457.77 498.37 437.5 392.51 437.5 392.41 437.39 370.68 414.5"/><polygon class="cls-58" points="431.57 544.11 431.57 470.36 434.34 470.36 434.34 542.96 459.92 568.31 459.92 663.5 491.05 694.41 491.05 741.25 488.28 741.25 488.28 695.57 457.14 664.65 457.14 569.47 431.57 544.11"/><polygon class="cls-59" points="469.85 669.84 469.85 646.66 470.05 646.46 523.22 593.95 523.22 558.95 498.31 534.04 498.31 451.31 482.75 436.19 482.75 419.66 484.13 419.66 484.13 435.6 499.7 450.72 499.7 533.46 524.61 558.37 524.61 594.53 524.4 594.74 471.23 647.24 471.23 669.29 482.13 680.99 482.13 741.03 480.74 741.03 480.74 681.54 469.85 669.84"/><polygon class="cls-60" points="449.76 671.25 449.76 538.03 473.71 514.08 473.71 476.75 452.98 455.65 452.98 409.24 454.36 409.24 454.36 455.08 475.1 476.18 475.1 514.65 451.15 538.61 451.15 670.69 467.95 687.85 467.95 743.2 466.56 743.2 466.56 688.42 449.76 671.25"/><polygon class="cls-61" points="369.42 603.88 369.42 486.25 369.47 486.2 389.59 466.43 389.59 404.25 389.94 404.25 389.94 466.57 389.88 466.63 369.77 486.4 369.77 603.73 385.76 619.46 385.76 685.88 419.15 715.44 419.15 744.03 418.81 744.03 418.81 715.6 385.42 686.03 385.42 619.6 369.42 603.88"/><polygon class="cls-61" points="389.42 744.03 389.42 717.11 424.54 682.33 424.54 582.46 393.59 553.25 393.59 491.75 421.41 463.92 421.41 411.55 422.11 411.55 422.11 464.21 394.28 492.03 394.28 552.95 425.24 582.16 425.24 682.62 390.11 717.4 390.11 744.03 389.42 744.03"/><polygon class="cls-62" points="410.11 723.58 410.11 617.02 410.16 616.97 440.72 585.72 440.72 527.63 440.77 527.58 461.93 508.51 461.93 487.02 462.28 487.02 462.28 508.66 462.22 508.71 441.06 527.79 441.06 585.86 441.01 585.91 410.46 617.16 410.46 723.45 429.19 744.27 428.94 744.5 410.11 723.58"/><polygon class="cls-63" points="372.03 700.1 372.03 612.94 382.12 604.6 382.12 557.34 382.31 557.14 446.11 492.3 446.11 407.33 433.11 395.01 434.06 394.01 447.49 406.73 447.49 492.87 447.3 493.07 383.5 557.91 383.5 605.25 373.42 613.59 373.42 699.64 380.37 709.03 380.37 742.99 378.99 742.99 378.99 709.49 372.03 700.1"/><polygon class="cls-64" points="443.85 663.7 443.85 640.32 443.9 640.27 468.89 617.02 468.89 581.89 468.94 581.84 538.44 512.68 538.44 488.76 538.79 488.76 538.79 512.83 538.74 512.88 469.23 582.04 469.23 617.17 469.18 617.22 444.19 640.47 444.19 663.7 443.85 663.7"/><path class="cls-65" d="M538.62,489.65a1.43,1.43,0,1,1,1.43-1.43A1.43,1.43,0,0,1,538.62,489.65Z"/><circle class="cls-66" cx="483.47" cy="418.66" r="1.43"/><path class="cls-67" d="M566.29,488a1.43,1.43,0,1,1,1.42-1.42A1.43,1.43,0,0,1,566.29,488Z"/><circle class="cls-68" cx="537.31" cy="427.25" r="1.43"/><circle class="cls-69" cx="453.55" cy="408.48" r="1.43"/><path class="cls-70" d="M406.18,351.12a2.4,2.4,0,1,1,2.4-2.39A2.39,2.39,0,0,1,406.18,351.12Z"/><path class="cls-71" d="M433,471.51a2.4,2.4,0,1,1,2.4-2.39A2.39,2.39,0,0,1,433,471.51Z"/><path class="cls-72" d="M421.64,412a1.43,1.43,0,1,1,1.42-1.42A1.42,1.42,0,0,1,421.64,412Z"/><path class="cls-73" d="M371.05,316.45a1.43,1.43,0,1,1,1.43-1.42A1.43,1.43,0,0,1,371.05,316.45Z"/><path class="cls-74" d="M432.81,395.36a1.43,1.43,0,1,1,1.43-1.43A1.43,1.43,0,0,1,432.81,395.36Z"/><circle class="cls-75" cx="389.67" cy="403.25" r="1.43"/><path class="cls-76" d="M462.1,487.31a1.43,1.43,0,1,1,1.43-1.42A1.43,1.43,0,0,1,462.1,487.31Z"/><path class="cls-77" d="M137.76,718.54V652.6h.18l.1-.12a.12.12,0,0,0-.11,0c.88-.28,14.58-13.76,23.61-22.79V574.5l.05-.06,35.62-35.31v-58.7l-8.84-9.14V428.54h.34v42.61l8.84,9.14v59l-.05.05-35.62,35.31v55.18l0,0c-.06.06-5.85,5.85-11.65,11.54-9.42,9.24-11.51,11-12.08,11.34v65.64L150,730v12.26h-.34V730.12Z"/><polygon class="cls-78" points="152.48 675.75 152.48 648.66 177.78 623.67 177.78 534.62 158.88 516.63 158.88 487.38 160.27 487.38 160.27 516.04 179.17 534.03 179.17 624.25 153.87 649.25 153.87 675.2 179.78 702.64 179.78 741.63 178.4 741.63 178.4 703.19 152.48 675.75"/><polygon class="cls-79" points="192.03 606.51 192.03 581.32 241.72 530.11 241.72 452.07 263.24 429.28 304.47 429.28 318.24 416.94 318.24 397.75 321.02 397.75 321.02 418.18 305.53 432.06 264.44 432.06 244.5 453.17 244.5 531.23 194.8 582.45 194.8 605.43 217.97 630.73 217.97 741.02 215.2 741.02 215.2 631.81 192.03 606.51"/><polygon class="cls-80" points="206.51 507.67 206.51 457.48 227.19 436.8 333.03 436.8 354.47 414.23 354.47 381.77 355.16 381.77 355.16 414.5 355.06 414.6 333.33 437.5 227.48 437.5 207.2 457.77 207.2 507.38 248.16 548.04 248.16 637.46 248.05 637.56 227.1 657.93 227.1 741.72 226.41 741.72 226.41 657.64 226.51 657.54 247.46 637.16 247.46 548.33 206.51 507.67"/><polygon class="cls-81" points="234.79 741.25 234.79 694.41 265.93 663.5 265.93 568.31 291.5 542.96 291.5 470.36 294.27 470.36 294.27 544.11 268.7 569.47 268.7 664.65 237.56 695.57 237.56 741.25 234.79 741.25"/><polygon class="cls-82" points="201.23 594.53 201.23 558.37 226.14 533.46 226.14 450.72 241.71 435.6 241.71 419.66 243.1 419.66 243.1 436.19 227.53 451.31 227.53 534.04 202.62 558.95 202.62 593.95 256 646.66 256 669.84 245.1 681.54 245.1 741.03 243.71 741.03 243.71 680.99 254.61 669.29 254.61 647.24 201.23 594.53"/><polygon class="cls-83" points="250.74 514.65 250.74 476.18 271.48 455.08 271.48 409.24 272.87 409.24 272.87 455.65 252.13 476.75 252.13 514.08 276.08 538.03 276.08 671.25 259.28 688.42 259.28 743.2 257.89 743.2 257.89 687.85 274.7 670.69 274.7 538.61 250.74 514.65"/><polygon class="cls-84" points="306.69 744.03 306.69 715.44 306.75 715.39 340.08 685.88 340.08 619.46 340.13 619.4 356.07 603.73 356.07 486.4 335.9 466.57 335.9 404.25 336.25 404.25 336.25 466.43 356.42 486.25 356.42 603.88 356.37 603.93 340.42 619.6 340.42 686.03 340.37 686.09 307.04 715.6 307.04 744.03 306.69 744.03"/><polygon class="cls-85" points="300.61 682.62 300.61 582.16 300.71 582.06 331.56 552.95 331.56 492.03 303.74 464.21 303.74 368.97 304.43 368.97 304.43 463.92 332.25 491.75 332.25 553.25 332.14 553.35 301.3 582.46 301.3 682.33 336.42 717.11 336.42 744.03 335.73 744.03 335.73 717.4 300.61 682.62"/><polygon class="cls-86" points="263.56 508.66 263.56 487.02 263.91 487.02 263.91 508.51 285.13 527.63 285.13 585.72 315.73 617.02 315.73 723.58 315.69 723.63 296.91 744.5 296.65 744.27 315.38 723.45 315.38 617.16 284.78 585.86 284.78 527.79 263.56 508.66"/><polygon class="cls-87" points="278.35 492.87 278.35 406.73 291.78 394.01 292.73 395.01 279.73 407.33 279.73 492.3 343.73 557.34 343.73 604.6 353.81 612.94 353.81 700.1 346.86 709.49 346.86 742.99 345.47 742.99 345.47 709.03 352.43 699.64 352.43 613.59 342.34 605.25 342.34 557.91 278.35 492.87"/><polygon class="cls-88" points="187.05 512.83 187.05 488.76 187.4 488.76 187.4 512.68 256.95 581.89 256.95 617.02 282 640.32 282 663.7 281.65 663.7 281.65 640.47 256.61 617.17 256.61 582.04 187.05 512.83"/><path class="cls-89" d="M187.22,489.65a1.43,1.43,0,1,0-1.43-1.43A1.43,1.43,0,0,0,187.22,489.65Z"/><circle class="cls-90" cx="242.37" cy="418.66" r="1.43"/><path class="cls-91" d="M159.55,488a1.43,1.43,0,1,0-1.42-1.42A1.43,1.43,0,0,0,159.55,488Z"/><circle class="cls-92" cx="188.53" cy="427.25" r="1.43"/><circle class="cls-93" cx="272.3" cy="408.48" r="1.43"/><path class="cls-94" d="M319.66,398.5a2.4,2.4,0,1,0-2.39-2.4A2.4,2.4,0,0,0,319.66,398.5Z"/><path class="cls-95" d="M292.81,471.51a2.4,2.4,0,1,0-2.4-2.39A2.39,2.39,0,0,0,292.81,471.51Z"/><path class="cls-96" d="M304.2,369.45a1.43,1.43,0,1,0,0-2.85,1.43,1.43,0,0,0,0,2.85Z"/><circle class="cls-97" cx="354.79" cy="380.84" r="1.43"/><path class="cls-98" d="M293,395.36a1.43,1.43,0,1,0-1.43-1.43A1.43,1.43,0,0,0,293,395.36Z"/><path class="cls-99" d="M336.17,404.68a1.43,1.43,0,1,0-1.42-1.43A1.43,1.43,0,0,0,336.17,404.68Z"/><path class="cls-100" d="M263.74,487.31a1.43,1.43,0,1,0-1.43-1.42A1.43,1.43,0,0,0,263.74,487.31Z"/></g></g><g class="cls-3"><polygon class="cls-101" points="739.68 34.17 716.81 34.17 716.81 32.78 739.05 32.78 756.13 13.27 797.65 13.27 806.8 5.65 841.15 5.65 841.35 5.82 867.87 29.3 866.95 30.34 840.63 7.04 807.3 7.04 798.15 14.66 756.75 14.66 739.68 34.17"/><path class="cls-102" d="M660.48,79.07h-59l0,0-9.1-8.79H549.74v-.34h42.75l0,0,9.1,8.8h58.69L695.7,43.06h55.18c9-9,22.51-22.73,22.79-23.61a.14.14,0,0,0,0,.11l.11-.08v-.2h65.93l0,0,11.54,11.84h12.12v.34H851.18l0-.05L839.59,19.62H774c-.31.57-2.1,2.66-11.34,12.08-5.69,5.8-11.49,11.59-11.55,11.65l-.05,0H695.84Z"/><polygon class="cls-103" points="862.84 61.3 823.84 61.3 796.41 35.39 770.45 35.39 745.45 60.69 655.23 60.69 637.25 41.79 608.58 41.79 608.58 40.4 637.84 40.4 655.83 59.3 744.87 59.3 769.87 34 796.96 34 824.39 59.91 862.84 59.91 862.84 61.3"/><polygon class="cls-104" points="816.95 84.73 777.02 84.73 776.92 84.62 764.22 71.02 690.59 71.02 690.59 70.32 764.52 70.32 764.62 70.43 777.32 84.04 816.66 84.04 833.12 66.97 862.53 66.97 862.53 67.66 833.41 67.66 816.95 84.73"/><polygon class="cls-105" points="753.22 111.56 698.51 111.56 698.51 110.87 752.95 110.87 770.02 95.32 828.24 95.32 841.35 81.6 862.84 81.6 862.84 82.3 841.65 82.3 828.54 96.01 770.29 96.01 753.22 111.56"/><polygon class="cls-106" points="539.38 202.54 471.57 202.54 471.57 199.76 538.15 199.76 550.49 185.99 550.49 144.76 573.27 123.24 651.31 123.24 702.52 73.55 727.71 73.55 753.01 96.72 862.23 96.72 862.23 99.49 751.94 99.49 726.63 76.32 703.65 76.32 652.43 126.02 574.38 126.02 553.26 145.96 553.26 187.05 539.38 202.54"/><polygon class="cls-107" points="535.71 236.68 437.16 236.68 437.16 235.99 535.43 235.99 558.01 214.55 558.01 108.71 578.69 88.03 628.87 88.03 628.97 88.13 669.54 128.98 758.37 128.98 778.85 107.93 862.92 107.93 862.92 108.62 779.14 108.62 758.66 129.68 669.25 129.68 669.15 129.57 628.58 88.72 578.97 88.72 558.7 109 558.7 214.85 558.59 214.95 535.71 236.68"/><polygon class="cls-108" points="665.32 175.79 591.57 175.79 591.57 173.02 664.16 173.02 689.51 147.44 784.7 147.44 815.62 116.31 862.45 116.31 862.45 119.08 816.77 119.08 785.86 150.22 690.67 150.22 665.32 175.79"/><polygon class="cls-109" points="791.04 137.52 767.86 137.52 767.66 137.31 715.16 84.14 680.15 84.14 655.24 109.05 572.51 109.05 557.39 124.62 540.86 124.62 540.86 123.23 556.8 123.23 571.93 107.66 654.67 107.66 679.57 82.75 715.74 82.75 715.94 82.96 768.44 136.13 790.5 136.13 802.2 125.23 862.23 125.23 862.23 126.62 802.74 126.62 791.04 137.52"/><polygon class="cls-110" points="792.46 157.6 659.24 157.6 635.28 133.65 597.95 133.65 576.85 154.38 530.45 154.38 530.45 153 576.29 153 597.38 132.26 635.85 132.26 659.81 156.22 791.89 156.22 809.05 139.41 864.4 139.41 864.4 140.8 809.62 140.8 792.46 157.6"/><polygon class="cls-101" points="794.52 177.41 733.72 177.41 733.72 176.72 794.22 176.72 817.94 151.9 863.58 151.9 863.58 152.59 818.23 152.59 794.52 177.41"/><polygon class="cls-111" points="725.08 237.94 607.46 237.94 607.4 237.89 587.63 217.77 525.45 217.77 525.45 217.43 587.78 217.43 587.83 217.48 607.6 237.59 724.93 237.59 740.66 221.6 807.08 221.6 836.64 188.21 865.24 188.21 865.24 188.56 836.8 188.56 807.24 221.94 740.8 221.94 725.08 237.94"/><polygon class="cls-112" points="865.24 217.94 838.32 217.94 803.54 182.82 703.67 182.82 674.45 213.77 612.95 213.77 585.13 185.95 532.76 185.95 532.76 185.25 585.41 185.25 613.24 213.08 674.15 213.08 703.37 182.12 803.83 182.12 838.6 217.25 865.24 217.25 865.24 217.94"/><polygon class="cls-113" points="844.79 197.25 738.23 197.25 738.18 197.2 706.93 166.65 648.84 166.65 648.79 166.59 629.71 145.43 608.23 145.43 608.23 145.08 629.87 145.08 629.92 145.14 648.99 166.3 707.07 166.3 707.12 166.35 738.37 196.91 844.65 196.91 865.47 178.17 865.7 178.43 844.79 197.25"/><polygon class="cls-114" points="821.3 235.33 734.14 235.33 725.8 225.25 678.54 225.25 678.34 225.05 613.51 161.25 528.53 161.25 516.22 174.25 515.21 173.3 527.94 159.87 614.07 159.87 614.28 160.07 679.11 223.86 726.45 223.86 734.8 233.94 820.84 233.94 830.23 226.99 864.2 226.99 864.2 228.38 830.69 228.38 821.3 235.33"/><polygon class="cls-115" points="764.16 246.81 729.25 246.81 729.25 246.12 763.91 246.12 775.04 237.07 864.2 237.07 864.2 237.77 775.28 237.77 764.16 246.81"/><polygon class="cls-112" points="784.9 163.52 761.52 163.52 761.47 163.46 738.22 138.47 703.1 138.47 703.05 138.42 633.89 68.92 609.96 68.92 609.96 68.57 634.03 68.57 634.08 68.62 703.24 138.13 738.37 138.13 738.42 138.18 761.67 163.17 784.9 163.17 784.9 163.52"/><polygon class="cls-116" points="663.41 233.24 641.96 233.24 641.96 230.47 662.25 230.47 683.46 208.91 724.12 208.91 743.6 187.69 816.32 187.69 829.54 174.48 844.72 174.48 844.72 177.25 830.69 177.25 817.47 190.47 744.82 190.47 725.34 211.68 684.62 211.68 663.41 233.24"/><circle class="cls-117" cx="715.68" cy="33.54" r="1.43"/><circle class="cls-118" cx="689.94" cy="70.84" r="1.43"/><circle class="cls-119" cx="609.43" cy="68.74" r="1.43"/><path class="cls-120" d="M541.29,123.89a1.43,1.43,0,1,1-1.43-1.42A1.43,1.43,0,0,1,541.29,123.89Z"/><circle class="cls-121" cx="607.73" cy="41.07" r="1.43"/><circle class="cls-122" cx="548.46" cy="70.05" r="1.43"/><path class="cls-123" d="M531.11,153.82a1.43,1.43,0,1,1-1.43-1.43A1.43,1.43,0,0,1,531.11,153.82Z"/><circle class="cls-124" cx="469.93" cy="201.18" r="2.4"/><path class="cls-125" d="M642.66,231.83a2.4,2.4,0,1,1-2.39-2.4A2.4,2.4,0,0,1,642.66,231.83Z"/><path class="cls-126" d="M592.72,174.33a2.4,2.4,0,1,1-2.4-2.4A2.4,2.4,0,0,1,592.72,174.33Z"/><circle class="cls-127" cx="531.8" cy="185.72" r="1.43"/><path class="cls-128" d="M437.65,236.31a1.43,1.43,0,0,1-2.85,0,1.43,1.43,0,1,1,2.85,0Z"/><path class="cls-129" d="M516.56,174.55a1.43,1.43,0,1,1-1.42-1.43A1.42,1.42,0,0,1,516.56,174.55Z"/><path class="cls-130" d="M525.88,217.69a1.43,1.43,0,1,1-1.42-1.42A1.43,1.43,0,0,1,525.88,217.69Z"/><circle class="cls-131" cx="607.09" cy="145.26" r="1.43"/><path class="cls-132" d="M698.73,111.27a1.43,1.43,0,1,1-1.43-1.43A1.43,1.43,0,0,1,698.73,111.27Z"/><circle class="cls-133" cx="732.56" cy="176.97" r="1.43"/><path class="cls-134" d="M729.51,246.4a1.43,1.43,0,1,1-1.43-1.42A1.43,1.43,0,0,1,729.51,246.4Z"/><polygon class="cls-135" points="841.15 483.23 806.8 483.23 797.65 475.61 756.13 475.61 739.05 456.1 716.81 456.1 716.81 454.71 739.68 454.71 756.75 474.22 798.15 474.22 807.3 481.85 840.63 481.85 866.95 458.55 867.87 459.58 841.15 483.23"/><path class="cls-136" d="M839.74,469.6H773.81v-.17l-.11-.11a.14.14,0,0,0,0,.11c-.28-.88-13.76-14.58-22.79-23.6H695.7l-.05-.06-35.32-35.61H601.64L592.49,419H549.74v-.34h42.61l9.15-8.84h59l0,.05,35.31,35.62H751l.05,0c.06.06,5.86,5.85,11.55,11.65,9.24,9.42,11,11.51,11.34,12.08h65.63l11.59-11.89h12.27v.34H851.33Z"/><polygon class="cls-137" points="796.96 454.88 769.87 454.88 744.87 429.58 655.83 429.58 637.84 448.48 608.58 448.48 608.58 447.09 637.25 447.09 655.23 428.19 745.45 428.19 770.45 453.49 796.41 453.49 823.84 427.58 862.84 427.58 862.84 428.97 824.39 428.97 796.96 454.88"/><polygon class="cls-138" points="862.53 421.91 833.12 421.91 816.66 404.84 777.32 404.84 764.52 418.56 690.59 418.56 690.59 417.87 764.22 417.87 777.02 404.15 816.95 404.15 833.41 421.22 862.53 421.22 862.53 421.91"/><polygon class="cls-139" points="862.84 407.28 841.35 407.28 828.24 393.56 770.02 393.56 752.95 378.01 698.51 378.01 698.51 377.32 753.22 377.32 770.29 392.87 828.54 392.87 841.65 406.59 862.84 406.59 862.84 407.28"/><polygon class="cls-140" points="727.71 415.33 702.52 415.33 651.31 365.64 573.27 365.64 550.49 344.12 550.49 302.89 538.15 289.12 518.95 289.12 518.95 286.34 539.38 286.34 553.26 301.83 553.26 342.92 574.38 362.87 652.43 362.87 703.65 412.56 726.63 412.56 751.94 389.39 862.23 389.39 862.23 392.16 753.01 392.16 727.71 415.33"/><polygon class="cls-141" points="628.87 400.85 578.69 400.85 558.01 380.17 558.01 274.33 535.43 252.9 502.98 252.9 502.98 252.2 535.71 252.2 535.8 252.3 558.7 274.03 558.7 379.89 578.97 400.16 628.58 400.16 669.25 359.2 758.66 359.2 758.76 359.31 779.14 380.26 862.92 380.26 862.92 380.95 778.85 380.95 778.74 380.85 758.37 359.9 669.54 359.9 628.87 400.85"/><polygon class="cls-142" points="862.45 372.57 815.62 372.57 784.7 341.44 689.51 341.44 664.16 315.86 591.57 315.86 591.57 313.09 665.32 313.09 690.67 338.66 785.86 338.66 816.77 369.8 862.45 369.8 862.45 372.57"/><polygon class="cls-143" points="715.74 406.13 679.57 406.13 654.67 381.22 571.93 381.22 556.8 365.65 540.86 365.65 540.86 364.26 557.39 364.26 572.51 379.83 655.24 379.83 680.15 404.74 715.16 404.74 767.86 351.37 791.04 351.37 802.74 362.26 862.23 362.26 862.23 363.65 802.2 363.65 790.5 352.75 768.44 352.75 715.74 406.13"/><polygon class="cls-144" points="635.85 356.62 597.38 356.62 576.29 335.88 530.45 335.88 530.45 334.5 576.85 334.5 597.95 355.23 635.28 355.23 659.24 331.28 792.46 331.28 809.62 348.08 864.4 348.08 864.4 349.47 809.05 349.47 791.89 332.67 659.81 332.67 635.85 356.62"/><polygon class="cls-113" points="863.58 336.98 817.94 336.98 794.22 312.17 733.72 312.17 733.72 311.47 794.52 311.47 818.23 336.29 863.58 336.29 863.58 336.98"/><polygon class="cls-145" points="865.24 300.67 836.64 300.67 836.59 300.61 807.08 267.28 740.66 267.28 740.61 267.23 724.93 251.29 607.6 251.29 587.78 271.46 525.45 271.46 525.45 271.11 587.63 271.11 607.46 250.94 725.08 250.94 725.13 250.99 740.8 266.94 807.24 266.94 807.29 267 836.8 300.32 865.24 300.32 865.24 300.67"/><polygon class="cls-146" points="803.83 306.76 703.37 306.76 703.27 306.65 674.15 275.8 613.24 275.8 585.41 303.63 490.18 303.63 490.18 302.93 585.13 302.93 612.95 275.11 674.45 275.11 674.56 275.22 703.67 306.06 803.54 306.06 838.32 270.94 865.24 270.94 865.24 271.63 838.6 271.63 803.83 306.76"/><polygon class="cls-147" points="629.87 343.8 608.23 343.8 608.23 343.45 629.71 343.45 648.84 322.24 706.93 322.24 738.23 291.63 844.79 291.63 844.84 291.68 865.7 310.45 865.47 310.71 844.65 291.98 738.37 291.98 707.07 322.58 648.99 322.58 629.87 343.8"/><polygon class="cls-148" points="614.07 329.01 527.94 329.01 515.21 315.58 516.22 314.63 528.53 327.63 613.51 327.63 678.54 263.63 725.8 263.63 734.14 253.55 821.3 253.55 830.69 260.5 864.2 260.5 864.2 261.89 830.23 261.89 820.84 254.94 734.8 254.94 726.45 265.02 679.11 265.02 614.07 329.01"/><polygon class="cls-111" points="864.2 251.81 775.04 251.81 774.94 251.73 763.91 242.76 729.25 242.76 729.25 242.07 764.16 242.07 775.28 251.11 864.2 251.11 864.2 251.81"/><polygon class="cls-149" points="634.03 420.31 609.96 420.31 609.96 419.96 633.89 419.96 703.1 350.41 738.22 350.41 761.52 325.37 784.9 325.37 784.9 325.71 761.67 325.71 738.37 350.75 703.24 350.75 634.03 420.31"/><polygon class="cls-148" points="844.72 314.4 829.54 314.4 816.32 301.19 743.6 301.19 724.12 279.97 683.46 279.97 662.25 258.41 641.96 258.41 641.96 255.64 663.41 255.64 684.62 277.2 725.34 277.2 744.82 298.42 817.47 298.42 830.69 311.63 844.72 311.63 844.72 314.4"/><circle class="cls-150" cx="715.68" cy="455.34" r="1.43"/><circle class="cls-151" cx="689.94" cy="418.04" r="1.43"/><circle class="cls-152" cx="609.43" cy="420.14" r="1.43"/><path class="cls-153" d="M541.29,365a1.43,1.43,0,1,0-1.43,1.42A1.43,1.43,0,0,0,541.29,365Z"/><circle class="cls-154" cx="607.73" cy="447.81" r="1.43"/><path class="cls-155" d="M549.88,418.83a1.43,1.43,0,1,0-1.42,1.43A1.43,1.43,0,0,0,549.88,418.83Z"/><path class="cls-156" d="M531.11,335.07a1.43,1.43,0,1,0-1.43,1.42A1.43,1.43,0,0,0,531.11,335.07Z"/><path class="cls-157" d="M519.7,287.7a2.4,2.4,0,1,0-2.4,2.39A2.39,2.39,0,0,0,519.7,287.7Z"/><path class="cls-158" d="M642.66,257.05a2.4,2.4,0,1,0-2.39,2.4A2.39,2.39,0,0,0,642.66,257.05Z"/><path class="cls-159" d="M592.72,314.55a2.4,2.4,0,1,0-2.4,2.4A2.4,2.4,0,0,0,592.72,314.55Z"/><circle class="cls-160" cx="489.22" cy="303.16" r="1.43"/><path class="cls-161" d="M503.47,252.57a1.43,1.43,0,1,0-1.42,1.43A1.43,1.43,0,0,0,503.47,252.57Z"/><path class="cls-162" d="M516.56,314.33a1.43,1.43,0,1,0-1.42,1.43A1.42,1.42,0,0,0,516.56,314.33Z"/><circle class="cls-163" cx="524.46" cy="271.19" r="1.43"/><circle class="cls-164" cx="607.09" cy="343.62" r="1.43"/><path class="cls-165" d="M698.73,377.61A1.43,1.43,0,1,0,697.3,379,1.42,1.42,0,0,0,698.73,377.61Z"/><circle class="cls-166" cx="732.56" cy="311.91" r="1.43"/><path class="cls-167" d="M729.51,242.48a1.43,1.43,0,1,0-2.85,0,1.43,1.43,0,0,0,2.85,0Z"/><circle class="cls-168" cx="548.46" cy="70.05" r="7.56"/><circle class="cls-169" cx="697.18" cy="111.53" r="7.56"/><circle class="cls-170" cx="590.22" cy="174.37" r="7.56" transform="translate(-21.8 239.14) rotate(-22.5)"/><circle class="cls-171" cx="640.17" cy="256.77" r="7.56"/><circle class="cls-172" cx="607.72" cy="448.1" r="7.56"/><circle class="cls-173" cx="697.28" cy="378.78" r="7.56"/><circle class="cls-174" cx="517.42" cy="287.92" r="7.56"/><polygon class="cls-175" points="8.82 454.71 31.69 454.71 31.69 456.1 9.45 456.1 -7.62 475.61 -49.15 475.61 -58.3 483.23 -92.65 483.23 -92.85 483.06 -119.37 459.58 -118.45 458.55 -92.12 481.85 -58.8 481.85 -49.65 474.23 -8.25 474.23 8.82 454.71"/><path class="cls-176" d="M88,409.81h59l.05.05,9.1,8.79h42.61V419H156l0-.05-9.1-8.79H88.17L52.8,445.83H-2.38c-9,9-22.51,22.72-22.79,23.6a.14.14,0,0,0,0-.11l-.11.08v.2H-91.24l-.05-.05-11.54-11.84h-12.12v-.34h12.27l.05.05,11.54,11.84h65.63c.31-.57,2.1-2.66,11.34-12.08,5.69-5.8,11.49-11.59,11.55-11.65l0,0H52.66Z"/><polygon class="cls-177" points="-114.34 427.58 -75.34 427.58 -47.91 453.49 -21.95 453.49 3.05 428.19 93.27 428.19 111.26 447.09 139.92 447.09 139.92 448.48 110.66 448.48 92.67 429.58 3.63 429.58 -21.37 454.88 -48.46 454.88 -75.89 428.97 -114.34 428.97 -114.34 427.58"/><polygon class="cls-178" points="-68.45 404.15 -28.52 404.15 -28.42 404.26 -15.71 417.87 57.91 417.87 57.91 418.56 -16.02 418.56 -16.12 418.45 -28.82 404.84 -68.16 404.84 -84.62 421.91 -114.03 421.91 -114.03 421.22 -84.91 421.22 -68.45 404.15"/><polygon class="cls-179" points="-4.72 377.32 49.98 377.32 49.98 378.01 -4.45 378.01 -21.52 393.56 -79.74 393.56 -92.85 407.28 -114.34 407.28 -114.34 406.59 -93.15 406.59 -80.04 392.87 -21.79 392.87 -4.72 377.32"/><polygon class="cls-180" points="209.12 286.34 276.93 286.34 276.93 289.12 210.35 289.12 198.01 302.89 198.01 344.12 175.23 365.64 97.19 365.64 45.98 415.33 20.79 415.33 -4.51 392.16 -113.73 392.16 -113.73 389.39 -3.44 389.39 21.87 412.56 44.85 412.56 96.07 362.87 174.12 362.87 195.24 342.92 195.24 301.83 209.12 286.34"/><polygon class="cls-181" points="212.79 252.2 311.34 252.2 311.34 252.9 213.07 252.9 190.5 274.33 190.5 380.17 169.81 400.85 119.63 400.85 119.53 400.75 78.96 359.9 -9.87 359.9 -30.34 380.95 -114.42 380.95 -114.42 380.26 -30.64 380.26 -10.16 359.2 79.25 359.2 79.35 359.31 119.92 400.16 169.53 400.16 189.8 379.89 189.8 274.03 189.91 273.93 212.79 252.2"/><polygon class="cls-182" points="83.18 313.09 156.93 313.09 156.93 315.86 84.34 315.86 58.99 341.44 -36.2 341.44 -67.11 372.57 -113.95 372.57 -113.95 369.8 -68.27 369.8 -37.36 338.66 57.83 338.66 83.18 313.09"/><polygon class="cls-183" points="-42.54 351.37 -19.36 351.37 -19.16 351.57 33.34 404.74 68.35 404.74 93.26 379.83 175.99 379.83 191.11 364.26 207.64 364.26 207.64 365.65 191.7 365.65 176.57 381.22 93.83 381.22 68.93 406.13 32.76 406.13 32.56 405.92 -19.94 352.75 -42 352.75 -53.7 363.65 -113.73 363.65 -113.73 362.26 -54.24 362.26 -42.54 351.37"/><polygon class="cls-184" points="-43.96 331.28 89.27 331.28 113.22 355.23 150.55 355.23 171.65 334.5 218.05 334.5 218.05 335.88 172.22 335.88 151.12 356.62 112.65 356.62 88.69 332.67 -43.39 332.67 -60.55 349.47 -115.9 349.47 -115.9 348.08 -61.12 348.08 -43.96 331.28"/><polygon class="cls-185" points="-46.02 311.47 14.79 311.47 14.79 312.17 -45.72 312.17 -69.44 336.98 -115.08 336.98 -115.08 336.29 -69.73 336.29 -46.02 311.47"/><polygon class="cls-186" points="23.42 250.94 141.04 250.94 141.09 250.99 160.87 271.11 223.05 271.11 223.05 271.46 160.72 271.46 160.67 271.4 140.9 251.29 23.57 251.29 7.84 267.28 -58.58 267.28 -88.14 300.67 -116.74 300.67 -116.74 300.33 -88.3 300.33 -58.74 266.94 7.7 266.94 23.42 250.94"/><polygon class="cls-187" points="-116.74 270.94 -89.81 270.94 -55.03 306.06 44.83 306.06 74.05 275.11 135.55 275.11 163.37 302.93 215.75 302.93 215.75 303.63 163.09 303.63 135.26 275.81 74.34 275.81 45.13 306.76 -55.32 306.76 -90.1 271.63 -116.74 271.63 -116.74 270.94"/><polygon class="cls-188" points="-96.28 291.63 10.27 291.63 10.32 291.68 41.58 322.24 99.66 322.24 99.71 322.29 118.79 343.45 140.28 343.45 140.28 343.8 118.64 343.8 118.58 343.74 99.51 322.58 41.43 322.58 41.38 322.53 10.13 291.98 -96.15 291.98 -116.97 310.71 -117.2 310.45 -96.28 291.63"/><polygon class="cls-189" points="-72.8 253.55 14.36 253.55 22.7 263.64 69.96 263.64 70.16 263.83 135 327.63 219.97 327.63 232.28 314.63 233.29 315.58 220.56 329.01 134.43 329.01 134.22 328.81 69.39 265.02 22.05 265.02 13.7 254.94 -72.34 254.94 -81.73 261.89 -115.7 261.89 -115.7 260.51 -82.19 260.51 -72.8 253.55"/><polygon class="cls-190" points="-15.65 242.07 19.25 242.07 19.25 242.76 -15.41 242.76 -26.54 251.81 -115.7 251.81 -115.7 251.11 -26.78 251.11 -15.65 242.07"/><polygon class="cls-187" points="-36.4 325.37 -13.02 325.37 -12.97 325.42 10.28 350.41 45.4 350.41 45.45 350.46 114.61 419.96 138.54 419.96 138.54 420.31 114.47 420.31 114.42 420.26 45.26 350.75 10.13 350.75 10.08 350.7 -13.17 325.71 -36.4 325.71 -36.4 325.37"/><polygon class="cls-191" points="85.09 255.64 106.54 255.64 106.54 258.41 86.25 258.41 65.04 279.97 24.38 279.97 4.9 301.19 -67.82 301.19 -81.04 314.4 -96.22 314.4 -96.22 311.63 -82.19 311.63 -68.97 298.42 3.68 298.42 23.16 277.2 63.88 277.2 85.09 255.64"/><circle class="cls-192" cx="32.82" cy="455.34" r="1.43"/><path class="cls-193" d="M57.14,418a1.43,1.43,0,1,1,1.42,1.43A1.42,1.42,0,0,1,57.14,418Z"/><circle class="cls-194" cx="139.07" cy="420.14" r="1.43"/><path class="cls-195" d="M207.21,365a1.43,1.43,0,1,1,1.43,1.42A1.43,1.43,0,0,1,207.21,365Z"/><path class="cls-196" d="M139.35,447.81a1.43,1.43,0,1,1,1.42,1.42A1.42,1.42,0,0,1,139.35,447.81Z"/><circle class="cls-197" cx="200.04" cy="418.83" r="1.43"/><circle class="cls-198" cx="218.82" cy="335.07" r="1.43"/><path class="cls-199" d="M276.17,287.7a2.4,2.4,0,1,1,2.4,2.4A2.4,2.4,0,0,1,276.17,287.7Z"/><path class="cls-200" d="M105.84,257.05a2.4,2.4,0,1,1,2.4,2.4A2.39,2.39,0,0,1,105.84,257.05Z"/><path class="cls-201" d="M155.78,314.55a2.4,2.4,0,1,1,2.4,2.4A2.4,2.4,0,0,1,155.78,314.55Z"/><circle class="cls-202" cx="216.7" cy="303.16" r="1.43"/><path class="cls-203" d="M310.85,252.57a1.43,1.43,0,1,1,1.42,1.43A1.42,1.42,0,0,1,310.85,252.57Z"/><circle class="cls-204" cx="233.36" cy="314.33" r="1.43"/><path class="cls-205" d="M222.62,271.19a1.43,1.43,0,1,1,1.42,1.43A1.42,1.42,0,0,1,222.62,271.19Z"/><circle class="cls-206" cx="141.41" cy="343.62" r="1.43"/><circle class="cls-207" cx="51.2" cy="377.61" r="1.43"/><circle class="cls-208" cx="15.94" cy="311.91" r="1.43"/><path class="cls-209" d="M19,242.48a1.43,1.43,0,1,1,2.85,0,1.43,1.43,0,0,1-2.85,0Z"/><polygon class="cls-210" points="-92.65 5.65 -58.3 5.65 -49.15 13.27 -7.62 13.27 9.45 32.78 31.69 32.78 31.69 34.17 8.82 34.17 -8.25 14.66 -49.65 14.66 -58.8 7.04 -92.12 7.04 -118.45 30.34 -119.37 29.3 -92.65 5.65"/><path class="cls-211" d="M-91.24,19.28h65.93v.18l.11.1a.14.14,0,0,0,0-.11c.28.88,13.76,14.58,22.79,23.61H52.8l.05,0L88.17,78.73h58.69L156,69.89h42.75v.34H156.15L147,79.07H88l0,0L52.66,43.4H-2.52l0,0c-.06-.06-5.86-5.85-11.55-11.65-9.24-9.42-11-11.51-11.34-12.08H-91.09l-11.59,11.89h-12.27v-.34h12.12Z"/><polygon class="cls-212" points="-48.46 34 -21.37 34 3.63 59.31 92.67 59.31 110.66 40.4 139.92 40.4 139.92 41.79 111.26 41.79 93.27 60.69 3.05 60.69 -21.95 35.39 -47.91 35.39 -75.34 61.3 -114.34 61.3 -114.34 59.91 -75.89 59.91 -48.46 34"/><polygon class="cls-213" points="-114.03 66.97 -84.62 66.97 -68.16 84.04 -28.82 84.04 -16.02 70.32 57.91 70.32 57.91 71.02 -15.71 71.02 -28.52 84.73 -68.45 84.73 -84.91 67.66 -114.03 67.66 -114.03 66.97"/><polygon class="cls-214" points="-114.34 81.6 -92.85 81.6 -79.74 95.32 -21.52 95.32 -4.45 110.87 49.98 110.87 49.98 111.56 -4.72 111.56 -21.79 96.02 -80.04 96.02 -93.15 82.3 -114.34 82.3 -114.34 81.6"/><polygon class="cls-215" points="20.79 73.55 45.98 73.55 97.19 123.24 175.23 123.24 198.01 144.76 198.01 185.99 210.35 199.76 229.55 199.76 229.55 202.54 209.12 202.54 195.24 187.05 195.24 145.96 174.12 126.02 96.07 126.02 44.85 76.32 21.87 76.32 -3.44 99.49 -113.73 99.49 -113.73 96.72 -4.51 96.72 20.79 73.55"/><polygon class="cls-216" points="119.63 88.03 169.81 88.03 190.5 108.71 190.5 214.55 213.07 235.99 245.52 235.99 245.52 236.68 212.79 236.68 212.69 236.58 189.8 214.85 189.8 109 169.53 88.72 119.92 88.72 79.25 129.68 -10.16 129.68 -10.26 129.57 -30.64 108.62 -114.42 108.62 -114.42 107.93 -30.34 107.93 -30.24 108.03 -9.87 128.98 78.96 128.98 119.63 88.03"/><polygon class="cls-217" points="-113.95 116.31 -67.11 116.31 -36.2 147.44 58.99 147.44 84.34 173.02 156.93 173.02 156.93 175.79 83.18 175.79 57.83 150.22 -37.36 150.22 -68.27 119.08 -113.95 119.08 -113.95 116.31"/><polygon class="cls-218" points="32.76 82.75 68.93 82.75 93.83 107.66 176.57 107.66 191.7 123.23 207.64 123.23 207.64 124.62 191.11 124.62 175.99 109.05 93.26 109.05 68.35 84.14 33.34 84.14 -19.36 137.52 -42.54 137.52 -54.24 126.62 -113.73 126.62 -113.73 125.23 -53.7 125.23 -42 136.13 -19.94 136.13 32.76 82.75"/><polygon class="cls-219" points="112.65 132.26 151.12 132.26 172.22 153 218.05 153 218.05 154.39 171.65 154.39 150.55 133.65 113.22 133.65 89.27 157.6 -43.96 157.6 -61.12 140.8 -115.9 140.8 -115.9 139.41 -60.55 139.41 -43.39 156.22 88.69 156.22 112.65 132.26"/><polygon class="cls-188" points="-115.08 151.9 -69.44 151.9 -45.72 176.72 14.79 176.72 14.79 177.41 -46.02 177.41 -69.73 152.6 -115.08 152.6 -115.08 151.9"/><polygon class="cls-190" points="-116.74 188.21 -88.14 188.21 -88.09 188.27 -58.58 221.6 7.84 221.6 7.89 221.65 23.57 237.6 140.9 237.6 160.72 217.42 223.05 217.42 223.05 217.77 160.87 217.77 141.04 237.94 23.42 237.94 23.37 237.89 7.7 221.94 -58.74 221.94 -58.79 221.89 -88.3 188.56 -116.74 188.56 -116.74 188.21"/><polygon class="cls-220" points="-55.32 182.13 45.13 182.13 45.23 182.23 74.34 213.08 135.26 213.08 163.09 185.25 258.32 185.25 258.32 185.95 163.37 185.95 135.55 213.77 74.05 213.77 73.94 213.66 44.83 182.82 -55.03 182.82 -89.81 217.94 -116.74 217.94 -116.74 217.25 -90.1 217.25 -55.32 182.13"/><polygon class="cls-221" points="118.64 145.08 140.28 145.08 140.28 145.43 118.79 145.43 99.66 166.65 41.58 166.65 10.27 197.25 -96.28 197.25 -96.33 197.21 -117.2 178.43 -116.97 178.17 -96.15 196.91 10.13 196.91 41.43 166.3 99.51 166.3 118.64 145.08"/><polygon class="cls-222" points="134.43 159.87 220.56 159.87 233.29 173.3 232.28 174.25 219.97 161.25 135 161.25 69.96 225.25 22.7 225.25 14.36 235.33 -72.8 235.33 -82.19 228.38 -115.7 228.38 -115.7 226.99 -81.73 226.99 -72.34 233.95 13.7 233.95 22.05 223.86 69.39 223.86 134.43 159.87"/><polygon class="cls-186" points="-115.7 237.07 -26.54 237.07 -26.44 237.15 -15.41 246.12 19.25 246.12 19.25 246.81 -15.65 246.81 -26.78 237.77 -115.7 237.77 -115.7 237.07"/><polygon class="cls-223" points="114.47 68.57 138.54 68.57 138.54 68.92 114.61 68.92 45.4 138.47 10.28 138.47 -13.02 163.52 -36.4 163.52 -36.4 163.17 -13.17 163.17 10.13 138.13 45.26 138.13 114.47 68.57"/><polygon class="cls-222" points="-96.22 174.48 -81.04 174.48 -67.82 187.69 4.9 187.69 24.38 208.91 65.04 208.91 86.25 230.47 106.54 230.47 106.54 233.24 85.09 233.24 63.88 211.68 23.16 211.68 3.68 190.47 -68.97 190.47 -82.19 177.25 -96.22 177.25 -96.22 174.48"/><circle class="cls-224" cx="32.82" cy="33.54" r="1.43"/><circle class="cls-225" cx="58.56" cy="70.84" r="1.43"/><path class="cls-226" d="M137.65,68.74a1.43,1.43,0,1,0,1.42-1.43A1.43,1.43,0,0,0,137.65,68.74Z"/><path class="cls-227" d="M207.21,123.89a1.43,1.43,0,1,0,1.43-1.42A1.43,1.43,0,0,0,207.21,123.89Z"/><path class="cls-228" d="M139.35,41.07a1.43,1.43,0,1,0,1.42-1.42A1.42,1.42,0,0,0,139.35,41.07Z"/><path class="cls-229" d="M198.62,70.05A1.43,1.43,0,1,0,200,68.62,1.42,1.42,0,0,0,198.62,70.05Z"/><path class="cls-230" d="M217.39,153.82a1.43,1.43,0,1,0,1.43-1.43A1.43,1.43,0,0,0,217.39,153.82Z"/><path class="cls-231" d="M228.8,201.19a2.4,2.4,0,1,0,2.4-2.4A2.39,2.39,0,0,0,228.8,201.19Z"/><path class="cls-232" d="M105.84,231.83a2.4,2.4,0,1,0,2.4-2.4A2.4,2.4,0,0,0,105.84,231.83Z"/><path class="cls-233" d="M155.78,174.33a2.4,2.4,0,1,0,2.4-2.4A2.4,2.4,0,0,0,155.78,174.33Z"/><path class="cls-234" d="M257.85,185.72a1.43,1.43,0,1,0,1.43-1.42A1.43,1.43,0,0,0,257.85,185.72Z"/><path class="cls-235" d="M245,236.31a1.43,1.43,0,1,0,1.42-1.43A1.42,1.42,0,0,0,245,236.31Z"/><path class="cls-236" d="M231.94,174.55a1.43,1.43,0,1,0,1.42-1.43A1.43,1.43,0,0,0,231.94,174.55Z"/><circle class="cls-237" cx="224.04" cy="217.69" r="1.43"/><path class="cls-238" d="M140,145.26a1.43,1.43,0,1,0,1.43-1.43A1.42,1.42,0,0,0,140,145.26Z"/><circle class="cls-239" cx="51.2" cy="111.27" r="1.43"/><circle class="cls-240" cx="15.94" cy="176.97" r="1.43"/><path class="cls-241" d="M19,246.4A1.43,1.43,0,1,0,20.42,245,1.43,1.43,0,0,0,19,246.4Z"/><circle class="cls-242" cx="200.04" cy="418.83" r="7.56"/><circle class="cls-243" cx="51.32" cy="377.35" r="7.56"/><circle class="cls-244" cx="158.28" cy="314.51" r="7.56"/><circle class="cls-245" cx="108.33" cy="232.11" r="7.56"/><circle class="cls-246" cx="140.78" cy="40.78" r="7.56"/><circle class="cls-247" cx="51.22" cy="110.1" r="7.56"/><circle class="cls-248" cx="231.08" cy="200.96" r="7.56"/></g></svg>