<svg xmlns="http://www.w3.org/2000/svg" xmlns:xlink="http://www.w3.org/1999/xlink" width="1680" height="1050" viewBox="0 0 1680 1050">
  <defs>
    <clipPath id="clip-path">
      <rect id="Rectangle_22" data-name="Rectangle 22" width="896.788" height="1050" fill="none"/>
    </clipPath>
    <clipPath id="clip-Web_1680_1">
      <rect width="1680" height="1050"/>
    </clipPath>
  </defs>
  <g id="Web_1680_1" data-name="Web 1680 – 1" clip-path="url(#clip-Web_1680_1)">
    <rect width="1680" height="1050" fill="#fff"/>
    <g id="Component_1_1" data-name="Component 1 – 1" transform="translate(-118)">
      <g id="Group_13" data-name="Group 13" clip-path="url(#clip-path)">
        <rect id="Rectangle_19" data-name="Rectangle 19" width="1345.93" height="1357.632" rx="133.891" transform="translate(843.452 -401.242) rotate(90)" fill="#020433"/>
        <path id="Path_45" data-name="Path 45" d="M133.909-.1,1212.2-.889c73.956-.054,133.865,60.1,133.811,134.35l-.8,1088.56c-.054,74.254-60.051,134.492-134.007,134.547l-1078.287.791c-73.956.054-133.865-60.1-133.81-134.35l.8-1088.56C-.044,60.195,59.953-.044,133.909-.1Z" transform="translate(637.846 -470.222) rotate(80)" fill="#0f225f"/>
        <path id="Path_26" data-name="Path 26" d="M-441.88,1160.418l-374.435-1020.7C-841.027,72.355-805.966-2.149-738-26.691L291.76-398.564c67.961-24.542,143.087,10.171,167.8,77.533L833.994,699.67c24.711,67.362-10.35,141.866-78.311,166.41L-274.081,1237.951C-342.042,1262.494-417.169,1227.781-441.88,1160.418Z" transform="translate(16.715 9.519)" fill="#224b9d"/>
        <path id="Path_27" data-name="Path 27" d="M-344.554,1375.772-892.526,434.945c-36.164-62.092-14.714-141.482,47.909-177.322L104.274-285.435c62.624-35.84,142.708-14.559,178.872,47.533L831.117,702.926c36.165,62.091,14.715,141.481-47.909,177.321L-165.682,1423.3C-228.306,1459.144-308.389,1437.863-344.554,1375.772Z" transform="translate(18.607 6.803)" fill="#316bcb"/>
        <path id="Path_28" data-name="Path 28" d="M-210.472,1569.639-915.1,737.186A129.031,129.031,0,0,1-899.034,554.3l839.1-697.971c55.378-46.064,137.969-38.869,184.473,16.07l704.63,832.453A129.031,129.031,0,0,1,813.1,887.739L-26,1585.71C-81.378,1631.774-163.969,1624.579-210.472,1569.639Z" transform="translate(19.394 3.425)" fill="#269aff"/>
        <rect id="Rectangle_21" data-name="Rectangle 21" width="895.81" height="1047.091" transform="translate(-0.361 3.575)" fill="none"/>
      </g>
    </g>
  </g>
</svg>
