<svg xmlns="http://www.w3.org/2000/svg" xmlns:xlink="http://www.w3.org/1999/xlink" width="1280" height="800" viewBox="0 0 1280 800">
  <defs>
    <clipPath id="clip-path">
      <rect id="Rectangle_22" data-name="Rectangle 22" width="680.349" height="800" fill="none"/>
    </clipPath>
    <clipPath id="clip-Web_1280_1">
      <rect width="1280" height="800"/>
    </clipPath>
  </defs>
  <g id="Web_1280_1" data-name="Web 1280 – 1" clip-path="url(#clip-Web_1280_1)">
    <rect width="1280" height="800" fill="#fff"/>
    <g id="Group_14" data-name="Group 14" transform="translate(-101)">
      <g id="Group_13" data-name="Group 13" clip-path="url(#clip-path)">
        <rect id="Rectangle_19" data-name="Rectangle 19" width="1025.47" height="1029.969" rx="133.891" transform="translate(639.886 -305.708) rotate(90)" fill="#020433"/>
        <rect id="Rectangle_20" data-name="Rectangle 20" width="1025.47" height="1029.969" rx="133.891" transform="translate(483.902 -358.265) rotate(80)" fill="#0f225f"/>
        <path id="Path_26" data-name="Path 26" d="M-534.16,787.356-818.225,9.68c-18.748-51.324,7.851-108.089,59.41-126.788L22.417-400.44c51.559-18.7,108.553,7.749,127.3,59.073L433.783,436.31C452.53,487.634,425.931,544.4,374.372,563.1L-406.859,846.429C-458.418,865.128-515.413,838.681-534.16,787.356Z" transform="translate(211.608 104.025)" fill="#224b9d"/>
        <path id="Path_27" data-name="Path 27" d="M-481.047,976.1-896.767,259.282a98.658,98.658,0,0,1,36.346-135.1l719.877-413.758c47.509-27.307,108.265-11.093,135.7,36.216L410.877,463.458a98.656,98.656,0,0,1-36.346,135.1l-719.876,413.758C-392.856,1039.624-453.611,1023.41-481.047,976.1Z" transform="translate(233.767 77.288)" fill="#316bcb"/>
        <path id="Path_28" data-name="Path 28" d="M-387.936,1154.485l-534.569-634.25A98.6,98.6,0,0,1-910.314,380.9l636.583-531.787A99.647,99.647,0,0,1-133.78-138.647L400.788,495.6A98.6,98.6,0,0,1,388.6,634.942l-636.583,531.787A99.645,99.645,0,0,1-387.936,1154.485Z" transform="translate(242.974 44.04)" fill="#269aff"/>
        <rect id="Rectangle_21" data-name="Rectangle 21" width="679.607" height="797.784" transform="translate(-0.274 2.724)" fill="none"/>
      </g>
    </g>
  </g>
</svg>
