<svg id="Group_20" data-name="Group 20" xmlns="http://www.w3.org/2000/svg" xmlns:xlink="http://www.w3.org/1999/xlink" width="414" height="352.081" viewBox="0 0 414 352.081">
  <defs>
    <clipPath id="clip-path">
      <rect id="Rectangle_8" data-name="Rectangle 8" width="352.081" height="414" transform="translate(414 0) rotate(90)" fill="none"/>
    </clipPath>
  </defs>
  <g id="Group_19" data-name="Group 19" transform="translate(0 0)" clip-path="url(#clip-path)">
    <rect id="Rectangle_6" data-name="Rectangle 6" width="530.681" height="533.009" rx="133.891" transform="translate(708.051 58.889) rotate(147.175)" fill="#020433"/>
    <rect id="Rectangle_7" data-name="Rectangle 7" width="530.681" height="533.009" rx="133.891" transform="matrix(-0.733, 0.68, -0.68, -0.733, 687.149, -23.687)" fill="#0f225f"/>
    <path id="Path_28" data-name="Path 28" d="M1823.382-202.984l258.5-341.688a51.153,51.153,0,0,1,71.8-9.731l342.367,260.254a51.438,51.438,0,0,1,10.021,71.93l-258.5,341.688a51.153,51.153,0,0,1-71.8,9.731L1833.4-131.053A51.439,51.439,0,0,1,1823.382-202.984Z" transform="translate(-1905.897 179.148)" fill="#224b9d"/>
    <path id="Path_29" data-name="Path 29" d="M1753.314-110.669l195.106-381.869a51.054,51.054,0,0,1,68.948-22.093l381.874,196.985a51.536,51.536,0,0,1,22.318,69.172L2226.454,133.394a51.056,51.056,0,0,1-68.948,22.094L1775.633-41.5A51.536,51.536,0,0,1,1753.314-110.669Z" transform="translate(-1885.167 165.014)" fill="#316bcb"/>
    <path id="Path_30" data-name="Path 30" d="M1704.466-2.972l125.858-410.39a51.025,51.025,0,0,1,64.015-33.786L2304.173-319.5a51.566,51.566,0,0,1,33.935,64.3L2212.25,155.19a51.024,51.024,0,0,1-64.014,33.786L1738.4,61.323A51.567,51.567,0,0,1,1704.466-2.972Z" transform="translate(-1870.731 142.525)" fill="#269aff"/>
  </g>
</svg>
