<svg xmlns="http://www.w3.org/2000/svg" xmlns:xlink="http://www.w3.org/1999/xlink" width="1024" height="768" viewBox="0 0 1024 768">
  <defs>
    <clipPath id="clip-path">
      <rect id="Rectangle_22" data-name="Rectangle 22" width="653.135" height="768" fill="none"/>
    </clipPath>
    <clipPath id="clip-Web_1024-1">
      <rect width="1024" height="768"/>
    </clipPath>
  </defs>
  <g id="Web_1024-1" data-name="Web 1024-1" clip-path="url(#clip-Web_1024-1)">
    <rect width="1024" height="768" fill="#fff"/>
    <g id="Group_13" data-name="Group 13" transform="translate(-180)" clip-path="url(#clip-path)">
      <rect id="Rectangle_19" data-name="Rectangle 19" width="984.452" height="988.77" rx="133.891" transform="translate(614.29 -293.48) rotate(90)" fill="#020433"/>
      <rect id="Rectangle_20" data-name="Rectangle 20" width="984.452" height="988.77" rx="133.891" transform="translate(464.546 -343.934) rotate(80)" fill="#0f225f"/>
      <path id="Path_26" data-name="Path 26" d="M-545.763,739.6-818.466-6.965c-18-49.271,7.537-103.766,57.034-121.717l749.983-272c49.5-17.951,104.211,7.439,122.209,56.71l272.7,746.57c18,49.271-7.538,103.765-57.034,121.717l-749.982,272C-473.051,814.265-527.766,788.876-545.763,739.6Z" transform="translate(236.113 116.121)" fill="#224b9d"/>
      <path id="Path_27" data-name="Path 27" d="M-498.21,924.945-897.3,236.8a94.712,94.712,0,0,1,34.892-129.7L-171.326-290.11A95.6,95.6,0,0,1-41.053-255.342l399.09,688.148a94.71,94.71,0,0,1-34.893,129.7L-367.936,959.711A95.6,95.6,0,0,1-498.21,924.945Z" transform="translate(260.821 86.31)" fill="#316bcb"/>
      <path id="Path_28" data-name="Path 28" d="M-410.25,1101.345l-513.186-608.88a94.654,94.654,0,0,1,11.7-133.765l611.12-510.516A95.661,95.661,0,0,1-166.26-140.062l513.185,608.88a94.654,94.654,0,0,1-11.7,133.765L-275.9,1113.1A95.659,95.659,0,0,1-410.25,1101.345Z" transform="translate(271.086 49.239)" fill="#269aff"/>
      <rect id="Rectangle_21" data-name="Rectangle 21" width="652.423" height="765.873" transform="translate(-0.263 2.615)" fill="none"/>
    </g>
  </g>
</svg>
