<svg xmlns="http://www.w3.org/2000/svg" xmlns:xlink="http://www.w3.org/1999/xlink" width="375" height="392.537" viewBox="0 0 375 392.537">
  <defs>
    <clipPath id="clip-path">
      <rect id="Rectangle_21" data-name="Rectangle 21" width="392.537" height="375" transform="translate(375) rotate(90)" fill="none"/>
    </clipPath>
  </defs>
  <g id="Group_31" data-name="Group 31" transform="translate(-0.511 0)">
    <g id="Group_30" data-name="Group 30" transform="translate(0.511 0)" clip-path="url(#clip-path)">
      <path id="Path_58" data-name="Path 58" d="M95.07-1.464,390.441-6.012c52.506-.808,94.415,41.694,93.607,94.932l-4.581,301.647c-.808,53.238-44.028,97.051-96.534,97.859L87.562,492.974c-52.506.808-94.415-41.694-93.607-94.932L-1.464,96.4C-.655,43.158,42.565-.655,95.07-1.464Z" transform="translate(641.351 117.898) rotate(147.175)" fill="#020433"/>
      <path id="Path_59" data-name="Path 59" d="M95.611-1.6,392.662-6.58c52.8-.885,94.894,41.314,94.009,94.253l-5.014,299.955c-.885,52.939-44.409,96.572-97.213,97.457l-297.05,4.978c-52.8.885-94.894-41.314-94.009-94.253L-1.6,95.855C-.717,42.916,42.807-.717,95.611-1.6Z" transform="matrix(-0.733, 0.68, -0.68, -0.733, 622.418, 40.547)" fill="#0f225f"/>
      <path id="Path_55" data-name="Path 55" d="M-242.164-526.175-8.013-846.242a45.329,45.329,0,0,1,65.038-9.115L367.139-611.571c20.467,16.089,24.531,46.256,9.078,67.379L142.067-224.125a45.329,45.329,0,0,1-65.039,9.115L-233.086-458.8C-253.553-474.885-257.617-505.052-242.164-526.175Z" transform="translate(167.422 566.582)" fill="#224b9d"/>
      <path id="Path_56" data-name="Path 56" d="M-367.512-398.89-190.785-756.6c11.664-23.607,39.624-32.873,62.453-20.7l345.9,184.52c22.828,12.178,31.879,41.188,20.216,64.8L61.057-170.27C49.394-146.663,21.433-137.4-1.4-149.575L-347.3-334.1C-370.124-346.273-379.175-375.283-367.512-398.89Z" transform="translate(248.08 512.531)" fill="#316bcb"/>
      <path id="Path_57" data-name="Path 57" d="M-454.85-233.072l114-384.422c7.524-25.371,33.484-39.54,57.984-31.649L88.364-529.567c24.5,7.892,38.262,34.856,30.738,60.227L5.1-84.918C-2.425-59.548-28.385-45.378-52.885-53.27L-424.112-172.845C-448.613-180.737-462.374-207.7-454.85-233.072Z" transform="translate(304.248 426.53)" fill="#269aff"/>
    </g>
  </g>
</svg>
