<svg id="Group_20" data-name="Group 20" xmlns="http://www.w3.org/2000/svg" xmlns:xlink="http://www.w3.org/1999/xlink" width="378" height="321.465" viewBox="0 0 378 321.465">
  <defs>
    <clipPath id="clip-path">
      <rect id="Rectangle_8" data-name="Rectangle 8" width="321.465" height="378" transform="translate(378) rotate(90)" fill="none"/>
    </clipPath>
  </defs>
  <g id="Group_19" data-name="Group 19" transform="translate(0 0)" clip-path="url(#clip-path)">
    <rect id="Rectangle_6" data-name="Rectangle 6" width="484.535" height="486.66" rx="133.891" transform="translate(646.481 53.768) rotate(147.175)" fill="#020433"/>
    <rect id="Rectangle_7" data-name="Rectangle 7" width="484.535" height="486.66" rx="133.891" transform="matrix(-0.733, 0.68, -0.68, -0.733, 627.397, -21.627)" fill="#0f225f"/>
    <path id="Path_28" data-name="Path 28" d="M1822.482-234.456l236.024-311.976a46.7,46.7,0,0,1,65.559-8.884l312.6,237.623a46.965,46.965,0,0,1,9.15,65.676L2209.786,59.959a46.7,46.7,0,0,1-65.558,8.885l-312.6-237.623A46.966,46.966,0,0,1,1822.482-234.456Z" transform="translate(-1897.822 212.692)" fill="#224b9d"/>
    <path id="Path_29" data-name="Path 29" d="M1752.825-146.294l178.141-348.663a46.615,46.615,0,0,1,62.952-20.172l348.668,179.856a47.055,47.055,0,0,1,20.377,63.157L2184.822,76.546a46.616,46.616,0,0,1-62.952,20.173L1773.2-83.137A47.055,47.055,0,0,1,1752.825-146.294Z" transform="translate(-1873.213 195.913)" fill="#316bcb"/>
    <path id="Path_30" data-name="Path 30" d="M1704.268-41.8l114.914-374.7a46.588,46.588,0,0,1,58.448-30.849l374.2,116.553a47.082,47.082,0,0,1,30.984,58.7L2167.9,102.61a46.587,46.587,0,0,1-58.448,30.848l-374.2-116.553A47.083,47.083,0,0,1,1704.268-41.8Z" transform="translate(-1856.075 169.217)" fill="#269aff"/>
  </g>
</svg>
