<svg xmlns="http://www.w3.org/2000/svg" xmlns:xlink="http://www.w3.org/1999/xlink" width="917" height="1080" viewBox="0 0 917 1080">
  <defs>
    <clipPath id="clip-path">
      <rect id="Rectangle_22" data-name="Rectangle 22" width="917" height="1080" fill="none"/>
    </clipPath>
  </defs>
  <g id="Group_14" data-name="Group 14" transform="translate(-1.485 -1.168)">
    <g id="Group_13" data-name="Group 13" transform="translate(1.485 1.168)" clip-path="url(#clip-path)">
      <rect id="Rectangle_19" data-name="Rectangle 19" width="1384.385" height="1388.23" rx="133.891" transform="translate(862.462 -412.706) rotate(90)" fill="#020433"/>
      <rect id="Rectangle_20" data-name="Rectangle 20" width="1384.699" height="1388.677" rx="133.891" transform="translate(652.222 -483.657) rotate(80)" fill="#0f225f"/>
      <path id="Path_26" data-name="Path 26" d="M-433.262,1205.185-816.136,155.323C-841.405,86.035-805.554,9.4-736.061-15.841l1052.974-382.5c69.493-25.243,146.312,10.462,171.581,79.749L871.368,731.273c25.268,69.287-10.583,145.92-80.076,171.164l-1052.973,382.5C-331.174,1310.178-407.994,1274.473-433.262,1205.185Z" transform="translate(-1.485 -1.822)" fill="#224b9d"/>
      <path id="Path_27" data-name="Path 27" d="M-331.808,1423.733-892.13,456.024a133.3,133.3,0,0,1,48.989-182.388L127.136-284.937c64.035-36.864,145.924-14.975,182.9,48.891L870.361,731.662a133.3,133.3,0,0,1-48.989,182.387L-148.9,1472.623C-212.94,1509.487-294.828,1487.6-331.808,1423.733Z" transform="translate(-1.485 -1.655)" fill="#316bcb"/>
      <path id="Path_28" data-name="Path 28" d="M-193.9,1619.458-914.412,763.22a133.254,133.254,0,0,1,16.431-188.107L-39.97-142.8a134.159,134.159,0,0,1,188.631,16.529L869.172,729.967a133.254,133.254,0,0,1-16.431,188.107L-5.27,1635.987A134.157,134.157,0,0,1-193.9,1619.458Z" transform="translate(-1.485 -1.449)" fill="#269aff"/>
      <rect id="Rectangle_21" data-name="Rectangle 21" width="916" height="1077.008" transform="translate(-0.37 3.677)" fill="none"/>
    </g>
  </g>
</svg>
