<svg xmlns="http://www.w3.org/2000/svg" xmlns:xlink="http://www.w3.org/1999/xlink" width="1280" height="1024" viewBox="0 0 1280 1024">
  <defs>
    <clipPath id="clip-path">
      <rect id="Rectangle_22" data-name="Rectangle 22" width="1021.513" height="1201.164" fill="none"/>
    </clipPath>
    <clipPath id="clip-Web_1280_2">
      <rect width="1280" height="1024"/>
    </clipPath>
  </defs>
  <g id="Web_1280_2" data-name="Web 1280 – 2" clip-path="url(#clip-Web_1280_2)">
    <rect width="1280" height="1024" fill="#fff"/>
    <g id="Group_14" data-name="Group 14" transform="translate(-393.667 -175.164)">
      <g id="Group_13" data-name="Group 13" clip-path="url(#clip-path)">
        <rect id="Rectangle_19" data-name="Rectangle 19" width="1539.698" height="1546.452" rx="133.891" transform="translate(960.76 -459.007) rotate(90)" fill="#020433"/>
        <rect id="Rectangle_20" data-name="Rectangle 20" width="1539.698" height="1546.452" rx="133.891" transform="translate(726.558 -537.918) rotate(80)" fill="#0f225f"/>
        <path id="Path_26" data-name="Path 26" d="M-388.7,1385.992-815.213,218.347c-28.149-77.061,11.788-162.291,89.2-190.367L446.973-397.43c77.413-28.075,162.988,11.635,191.137,88.7L1064.621,858.912c28.148,77.06-11.789,162.29-89.2,190.367L-197.565,1474.688C-274.978,1502.763-360.554,1463.054-388.7,1385.992Z" transform="translate(-95.595 -47.624)" fill="#224b9d"/>
        <path id="Path_27" data-name="Path 27" d="M-265.9,1617.435-890.082,541.161c-41.194-71.031-16.761-161.85,54.572-202.85L245.353-282.929c71.333-41,162.555-16.655,203.749,54.376L1073.286,847.722c41.195,71.03,16.762,161.849-54.572,202.849L-62.148,1671.81C-133.483,1712.81-224.7,1688.465-265.9,1617.435Z" transform="translate(-105.381 -35.817)" fill="#316bcb"/>
        <path id="Path_28" data-name="Path 28" d="M-108.207,1820.665l-802.631-952.3a148.041,148.041,0,0,1,18.3-209.211L63.267-139.3c63.08-52.7,157.158-44.465,210.13,18.384l802.63,952.3a148.041,148.041,0,0,1-18.3,209.211l-955.8,798.455C38.842,1891.745-55.236,1883.514-108.207,1820.665Z" transform="translate(-109.447 -21.133)" fill="#269aff"/>
        <rect id="Rectangle_21" data-name="Rectangle 21" width="1020.399" height="1197.837" transform="translate(-0.412 4.089)" fill="none"/>
      </g>
    </g>
  </g>
</svg>
