<svg xmlns="http://www.w3.org/2000/svg" xmlns:xlink="http://www.w3.org/1999/xlink" width="1600" height="900" viewBox="0 0 1600 900">
  <defs>
    <clipPath id="clip-path">
      <rect id="Rectangle_22" data-name="Rectangle 22" width="765.393" height="900" fill="none"/>
    </clipPath>
    <clipPath id="clip-Web_1600_1">
      <rect width="1600" height="900"/>
    </clipPath>
  </defs>
  <g id="Web_1600_1" data-name="Web 1600 – 1" clip-path="url(#clip-Web_1600_1)">
    <rect width="1600" height="900" fill="#fff"/>
    <g id="Group_14" data-name="Group 14" transform="translate(-28)">
      <g id="Group_13" data-name="Group 13" clip-path="url(#clip-path)">
        <rect id="Rectangle_19" data-name="Rectangle 19" width="1153.654" height="1158.715" rx="133.891" transform="translate(719.871 -343.922) rotate(90)" fill="#020433"/>
        <rect id="Rectangle_20" data-name="Rectangle 20" width="1153.654" height="1158.715" rx="133.891" transform="translate(544.39 -403.048) rotate(80)" fill="#0f225f"/>
        <path id="Path_26" data-name="Path 26" d="M-497.9,936.581-817.475,61.7c-21.091-57.74,8.832-121.6,66.836-142.637L128.248-399.69c58-21.036,122.122,8.718,143.214,66.457L591.035,541.654c21.09,57.739-8.833,121.6-66.837,142.637l-878.885,318.747C-412.691,1024.074-476.811,994.321-497.9,936.581Z" transform="translate(135.03 66.222)" fill="#224b9d"/>
        <path id="Path_27" data-name="Path 27" d="M-427.416,1135.97-895.1,329.547a110.99,110.99,0,0,1,40.89-151.99L-44.349-287.921C9.1-318.641,77.449-300.4,108.314-247.179L576,559.245a110.988,110.988,0,0,1-40.89,151.989l-809.861,465.478C-328.2,1207.432-396.55,1189.191-427.416,1135.97Z" transform="translate(149.226 49.094)" fill="#316bcb"/>
        <path id="Path_28" data-name="Path 28" d="M-318.207,1320.547-919.6,607.015a110.923,110.923,0,0,1,13.714-156.756L-189.726-148A112.1,112.1,0,0,1-32.281-134.227L569.108,579.3A110.923,110.923,0,0,1,555.394,736.06l-716.156,598.261A112.1,112.1,0,0,1-318.207,1320.547Z" transform="translate(155.124 27.794)" fill="#269aff"/>
        <rect id="Rectangle_21" data-name="Rectangle 21" width="764.558" height="897.507" transform="translate(-0.308 3.064)" fill="none"/>
      </g>
    </g>
  </g>
</svg>
